<svg class="default-fill" xmlns="http://www.w3.org/2000/svg" width="1100" height="640" xml:space="preserve"><path fill="#DDD" stroke="#FFF" d="m102.7 341.2 2.2 2.8 1-2.9h2.4l1-1.7.9-2 .3-3.5 1.5-1.5.3-2.1 2.5-2.2-1.4-1.4 1.4-1.3 1.5-.8v-2.3l1.4-.8 1.6-1.6 2.3-1 .7-2.4-1.7-1.3-.6-1.4 1.3-1.2v-2.1l1.2-1.3 2.8-.2-.7-3.3.9-3-1.1-2.4-.1-2.4-2.2-2.2 1.1-2.2-2-2.4-3.9-.1-2.8 3.8-3.5 1.3-.2 2.5-1.8 2.2-4.2.2-1.6 2v3.5l-4 2.5-2.7.6.8 3-1.8 3.4-3.2 3.1-.5 2.4 1.5 3.3 2.4 2.3-.9 2.7-1 2.5 3.2.8 2.8 2.7v5.7l2.9-.3z"/><path fill="#DDD" stroke="#FFF" d="m96.7 344.1-1.2 2.5-3.3 1-1.4 3.7-1.8 4.3-1 4 .2 2.9-1.7 1.1 2.5 2.5-1 3.7-.8 3.3 2.5 1.4v2.9l1.5-1.6 1.7-2.7 2.2.2 2.5-1.3 2.2-.5 2.5-2.4h2.2l1.7 1.7.5 2 2.4.2.8-.8 1.4.4 2.4 1.9 1.8-1.5h2.3l3.1-.6 1.2-1.9 2.2-2.2 3-1.3.9-2.7-.9-1.8-2-1.5-1.2-2.5-1.3-1.4v-1.7l-2.9-.8-2.6.8-3.3-.9-1.6-1.6-2.5-1.4-1.9-1.9-.6-3.4-2.2-1.2-.3-1-2.2-2.8-2.9.3-3.1 2.6z"/><path fill="#DDD" stroke="#FFF" d="m84 374.1-3.3-1.1-1-2.5-1.9-2-2.5.1-.8 3-2.2 2.5-3.1 3.2-1.5 2.7 1.5 2.5 1.7 1.7 2.3-1.9 1.5 2.2 1.8 2 2.5.3 1.8 1.8 1.4 3.4-.4 2.6-1.1 4.5 1.8.1 1.2-1.7 2.4-.8 1.4 1.1h2.1l1.8-1.8h1.8l.4-1.5-.5-1.5 1.6-.6h1.8l1.4 1.3.9-.9.5-2.1 1-1-.3-2.4-1.6-1.6v-2l1.2-1.3V380l.7-2.5-1.3-1.3.2-1.7-1.6-2.5-2.5 1.3-2.2-.2-1.7 2.7-1.5 1.6v-2.9l-2.5-1.4-3.2 1z"/><path fill="#DDD" stroke="#FFF" d="M78.2 414v-3.5l-1.9-3.4-1.8-2.8 1.7-1.3 1-2.5h2l1.5-1.4 1.8.1 1.2-1.7 2.4-.8 1.4 1.1h2.1l.9 1.4 1.8.7 1.2 1v2.7l1.9.5.5 1.6 1.8.8.5 3.7 1.8 3.1.6 3.8 1.8.4 1.4 1.3v2.8l2.1.4 2.3 1.5-2 2-2.5-.9-1.6 1.7v2.4l-1.8.8-.7-2.6-2.6-2.5-3.7-2.4-2.4.5-4.6-.9v-1.8l-2.4-2.6-1.1 1.2h-2.9l-3.4-.8 1.7-3.6z"/><path fill="#DDD" stroke="#FFF" d="m91.8 450.5-1-3.9-2.5-1.5-2.6-3 1-3.5-1-5.1-3.2-2.4-3.7-2.8-1.1-3.8-2.5-2-.9-2.4 2.2-2.5 3.4.8h2.9l1.1-1.2 2.4 2.6v1.8l4.6.9 2.4-.5 3.7 2.4 2.6 2.5.7 2.6.7 2.2-1.5 1.2 2.1 2.1-1.3 2.4h-1.7v3.3l.6 2.4-2.6 1.3v2.9l-1.9.1.5 2.1-2.9 1.5-.5-.5z"/><path fill="#DDD" stroke="#FFF" d="m92.3 451 2.9-1.5-.5-2.1 1.9-.1v-2.9l2.6-1.3-.6-2.4v-3.3h1.7l1.3-2.4-1.2-1.3-.9-.8 1.5-1.2-.7-2.2 1.8-.8v-2.4l1.6-1.7 2.5.9 2-2 2.9.4 1.3 2.6 3 1-.6 3 2 2 2.6.3 2.4 3.3 1.7 1.6-.9 2.6 2 2 3.2 1.3 1.1 2.1 1.9 1.9 1 3.3 1.4 3.4-1.3 1.2h-3.3l-2.6-1.4-.6-1.8-2.4-.5-2.3 2.1h-4.8l-1.2 4-3.9 3.9h-4.3l-1.5 1.5h-2.3l-1.2-1.6h-2.9v-2.1l-1.3-1.3-2.8-1.3v-3.5l-2.2-2.5zm-37 93.3-2.5-1.2-3.6-2.5-1.2-4-2.5-3.8-.8-3.3 2-2.1 2.4-.3 1.6-1.7h1.7l.9 2 1.5 2.2H58l2.5-3.2 2 .7v2.6l1.8 1.2.5 2.1.9 1.4h-2.9l-.9 1.5 1.4 1.3.8 1.5-.9 2-2.3 1-1.6-.2-2 2-2 .8zm6 11.7.7 5.3 2.3 2.3 3.7.5 2.1 2.1.6 1.8 1.6-2.7h2.5l.2-1.8-.7-2.6.7-3.9 2.3-.9 3.4.1-.7-2.8-3.2-2.9-1.3 1.1v2l-1.2 1.2-3 .2-1 1-1.7-1.4h-2.1l-1.5.9-1.4-.3-2.3.8z"/><path fill="#DDD" stroke="#FFF" d="m80.4 562.9-1.6 3.4-1.9 3.2-2.6 1.8-.8-3-2.8-.3 1.6-2.7h2.5l.2-1.8-.7-2.6.7-3.9 2.3-.9 1.1 2.2 2.7 2-.7 2.6zm24.2-7.7-1.7 1.8v2.7l1.8 1.8 1 3.1-.9 3.2-.7 2.9-1.9 1.9v1.2l-1.7 1.5-3.7 6v4.7l1 5.6-.6 4.4.3 5.3-4 1.8-2.7-1.1-3.8 1.3-3.7-.8-.5-3.2-1.8-5.5-.3-4L78 588v-2.2l-1.3-3.5-2.4-3 1.5-2.5 2.9-.4 1.8-1.4 2.8.2 1.7-1.3 2.8 1.6 1-3.9 2.9-3.5 3.1-1.7 1.7-.6-.3-3.8-3.4-.3-1.9-2.5-2.4-2.6 1-2.6-1.7-.9v-1.4h2l1.2-1.1-.8-1.4 1.3-1.2 2.2.7 2.5-.8 2.6-1.7 2.3 1.6 1.1 1.8 1.8.6.8 2.1-.2 2.9z"/><path fill="#DDD" stroke="#FFF" d="m106.7 555.8 3.5-1h3.1l2.9-3.3 2.3-1v-2.4l-1.8-1.2-2.3-.1-.5-1.3 5.5-3.8v-1.6l-1.1-1v-2l-1.2-1.7 1.3-1.3 1.9.8.3 1.3h1.2l.3-2.1 3.5.3 1.1-2.7-1.7-1.7 1.2-4.2 1.9-1.1.5-1.9.4-2.1-3.7-.1-1.6-2.2-.3-3.2.5-2.5.5-2.8-2-1.3-.9-3.3-3-.7-1.8-1.7v-2.1l-1.6-.6-1.2 3.3-1.7.7-1.7-1.7-2 .8-1.8-1.8-3 2.7v3.6l2.1.1 2.5-1.3v2.5l-1.7 3.3-3.4 2.5h-3.8l-3.5 3.7-2-.5-.8.8-1.8-.7-1.3-1.3-1.2-5-2-.5-1.6-1.6v-2.2l-.9-2.4h-1.9v1.7l-1.2 1.2h-3.1l-1.6-1.2-2.1 1.7 1.9 1 .7 2.1h1.7l1.4-.5.7 2.2 1.4 1.4 2.9-.6 1.9.8.3 2.5 1.6 1.8.5 2.1L91 523l1.1 3-1.2 2.2 1.3 2.3 1.7 1.7 1.3 1.8v2l1.8 1.7.4 2.6 1.4 2.1v3.8l2.3 1.6 1.1 1.8 1.8.6.8 2.1-.2 2.9 2.1.6zM270 531l1.1 2.4 2.3 2.3 1.6 1.6.7 2.8 2.3 2.4-2.3 3.1-2.2 2.2h-3.7l-3.7.2-1.9-1.9-1.4-2.7h-1.7l-1.8 1.8h-2.9l-3.2-3.2-.7-1.9-2.4-2.5v-4.2l-2.1-2.1h-3.8l-3.2 1.2-1.2-2.5-3.1-2.5-2.9-1.5-3.8 1.8-3.5.5-2.8-.8-2-3.9-2.9-2.5-2 3.4h-2.1v-2.7l2-2-1.4-2.8-1.6-4.4-.7-4.5-2.5-3-4-1.5-1.2-2.8-2.1-2.2-4 .7h-2.4v-3.2l-1.1-3.3.1-1.9h5.9l1.7-3.5 3.2-2.3 1.9.5 1-2.2 4.5-.8 2.3-5.3 3.8-2.1 2.9-2.9 1.1-4.7h2.7l2.8 2.8-1.9 2 1.7 1.6 1 1.8-.1 4.3 1.2 1.3-.9 4.6 1.9 1.2 2.2 2.2 1.4 3.7v3.6l1.1 2.3-.9 2.3v3.2l-.7 1.6 1.9 1.1 1.8-1.7h2.8l1 1.8-1 2.5-2.7 1.1.6 1.3 1.8.4-.5 3.3-1.1 1.1.6 2.5h1.6l.3 1.5 2 2 2-1 1.5-1.5 1.7.9.7 1.7 1.7 1.3 2.2.6 2.1-1.7 1.4-3.3h5.9l2-.7 2.7 1.2h1.7l1.1 2.1-.8 2.1-3.1 1.5.2 2.1h1.8l.5 2.7z"/><path fill="#DDD" stroke="#FFF" d="m305.5 510.3-4.2-.8-3 .8-2.6-2.3-3.9-2h-3.5l-1.1 3.6 1.1 2.5-2.3 2.4 1.8 1.1 1.9 1.9 2.2 2.2-2.1 2.1h-2.3l-2.8-2.8-4.4.1-2.8 1.2 1.2 4.2-1.2 3-2.8.8-3.4-.8-1.3 3.5-.5-2.7h-1.8l-.2-2.1 3.1-1.5.8-2.1-1.1-2.1h-1.7l-2.7-1.2-2 .7H258l1-1.7 2.6-1.2.5-2.5 2.2-4.1h1.8v-2.9l2.2-2.9v-1.9l3.4-3.4 2.6-.9v-1.2l2.8-.2 1.2 1.6h1.9v-3.2l-1.1-3.7-4.1-1.3-1.8 1.2-4.1-.4-2.1-3.4-.5-4.5-1.6-1.6-.7-3.2 3.6-2.7 2.5.8 2.8 1.3 1.8 1.9v2.3l3.5 1.2 2.2-2.2 3.8-.9v-2l2-3.7.8-2.6-.7-2.8 2.3-.9 2.8 1.9.9 1.7 3 1 .6 1.2 2.2.3 2.3 2.2 2.1-2 2.4 1.3 1.8 1.8 1.7 1.8.1 3.7.5 4.2-1.6 2.5h-2.8l-1.7 1.6 1 3.2-1.6 1.6h-2.2l-.6 2.3 1.9 1.9 2.1.1.5 1.5h3.3l1.3 3.3-2.4 2.5-.9 2.4zm99.8 30.4-2.8 2.8-4.7 1.3-4 2.2-1.8-2.7-3.5 1.7h-2.8l1-4.5 4-1.9v-2.3h-3.4l-3-1.8-1.8 1.8-3.3-1 1.1-3.9-2.5-2.4-3.3 2-3.7-1-.9-3 2.1-2v-3.2l.8-2.3-1.3-4.2-2.5-1.2v-2l.9-1.9 1.7-1.7v-2.3l1.4-.2 1.8-1.8.6-1.7v-2.9l4.2-4.2 3.2-.6 1.2-1.2v-2.2l-2.5-1.4-.8-1.9-1.6-1.6-2.2-1.1v-1.9l2.6-1.3-1.1-3.3.2-2.7 2.4-2.5 1.1-2 2.5-1.7 2.7 2.6-1.7 1.6v2l2.3.8 2.9.9 1.8.8 2.2 1.4h3.3l1.2-1.6 2.8 1.5 2.5.7h4l3.3-1.5 2.7-2.7 1.5-2.1.5 1.6-.8 2.1-1 2.3v3.3l1.9 2-.6 4.2 1.9 3.7 1 2.9v8l-2.7 2.7.6 1.8v2.5l-1.3 1.2-2.3-.8-2.2.8-3.1 3.7-1.9 4.6.8 5.9v3.3l1.7 1.7v2l-1.9 1.8-1.4 4z"/><path fill="#DDD" stroke="#FFF" d="m422 555.1-1.8-1.8-1.9-4.1-2.1-2.1-2.9-1.1v-3h2.4l2-2.7-.9-2.3h-3l-2.5 2.5-3.5.1-2.5.1 1.4-4 1.9-1.8v-2l-1.7-1.7v-3.3l-.8-5.9 1.9-4.6 3.1-3.7 2.2-.8 2.3.8 1.3-1.2V510l-.6-1.8 2.7-2.7v-8l3.6.9 2 2h4.2l4.5.6 3.7 2 4.5 1.9 2.8 2.8 2.3 2.2 3.3 4.6h7.2l2.9 4h3.4l4-1 2.4-2.4 2.1 1 .6 4.3v3.1l1.3 1.3-1.5 1.6 1.8 1.8 2.1-2.1 2.2-2.5 4.2.3.5 5.5 1.2 2.3.8 5-.6 7.2 2.1 3.1-5.5 3.1h-3.2l-2.3 1.8-2.2-1.3-2.3 2.3-2-2-3.2 3.2-1.4 3.8-2.2 1-2.3-3.3h-1.9l-1.5-2.2V551l-3-3-1.5-1.6-3.5.2-4.8 1.6-4.9 3.7h-5.5l-3.3 1.3-2.5.9-1.8-1.9-1.2 1.7-2.6 1.2z"/><path fill="#DDD" stroke="#FFF" d="m473.7 601.1-2.4-2.1-3.1-1.4-2-2.1h-4.3l-2.1 2.1-4.1.7-1.7-1.7-3.7.7-2-2-1.8-1.8V591l-1.8-2.2-2.7.8-1.8 3.9-3.7.6-2.2-4.3-1.1-3.8-.9-4.4-2.8-5v-4l-2.7-2.5v-5.5l-2-6.6-2.8-2.9 2-.9 1.8-2 1.8 1.9 5.8-2.2h5.5l4.9-3.7 4.8-1.6 3.5-.2 4.5 4.6v2.4l1.5 2.2h1.9l2.3 3.3 2.2-1 1.4-3.8 3.2-3.2 2 2 2.3-2.3 2.2 1.3 2.3-1.8h3.2l5.5-3.1 2 3.9h3l2.2 4.1 1.8 1.9.7 3.1 2.6 1.6h2.5l.1 2.3-2.5 1.1 1.8 3.1v2.6l1 2.8-2.7 1.2-1.5 2.7 1.8 1.8-1.3 1.9h-1.7l-1.6 2.1-3.2-2-2 2v2.5l-1.8 1.9-2.2 2.3h-2.8l-4.4 1.6-3.5 1.1-1.6 1.6 2.2 2.3 1.4 1.4v3l-3.2.2z"/><path fill="#DDD" stroke="#FFF" d="m524.5 616.5-3.9.9-2.8 2.7-5-.1-4.1 2.3-2.2 2.2-4.8-.9-1.5-2.5-1.9-3.3-.9-3.4-2.6 2.6-4.3 1.6-4-1.3-4.5-1.2v-4l-3.5-2.1-1.3-3-2.9-1.9-.6-4 3.2-.2v-3l-1.4-1.4-2.2-2.3 1.6-1.6 3.5-1.1 4.4-1.6h2.8l4-4.2v-2.5l2-2 3.2 2 1.6-2.1h1.7l1.3-1.9-1.8-1.8 1.5-2.7 2.7-1.2 3.2 2.9h3.3l2.8 1.5h1.7l.1 3-2.1 2-2.4 2.5.7 3.2-1.6 1.6 3.4 3.5h2.7l1.7-3.3h1.7l.5 3.8 1.1 3.7 3.8 3.8 3.1 2.9-.7 2.4-2.8.6-1.2 1.3 2.5 2.5v2.7l1.2 2.4z"/><path fill="#DDD" stroke="#FFF" d="M605.6 579.4 603 582l-2.1 4.2-2.2 2.3-.7 4.3 2.1 2.5v3.7l2.9 3v4l-3.9 2.5-3.8 3.8h-8l-4.5-1.2-4.6.9-3.4-1-4.8-1.7-2.7-2.7-3.1-3.1-3.9-1.2-4.5 1.8-2.8-2.8-3.6-1.6-2.9 2.9h-3.7l-1.1 3.5h-4.4l-5.5 3.5-3.3 3.4h-3.3l-.7 3.5-1.2-2.4v-2.7l-2.5-2.5 1.2-1.3 2.8-.6.7-2.4-3.1-2.9-3.8-3.8-1.1-3.7-.5-3.8 1.5-1.5 2.9.7 3.2.3 3.2-3.2V583l3.6-1.9 2.9 2.9 3.8 1.4h3.8l3.4 1.7h2.6l3.5-1.5 4.9-4.2 3.5-1v-4.3l2.5-2.5v-2.7l3.8-1 1-6 1.7-1.7 4.3.8 3.2-3.2 3.7.2 1.4-1.4 1.9.6.8-2.1h3l2.5 1.9 3.8.5 3.1 3 2.1 1h3.7l1.5-1.5 1.7 1.7 1.4 1.4-2 2v2.9l-1.7 1.8.6 2.8 1.6 1.6.2 3.2zm285.7-58.5-1.9 1.9-3.8-1-3.2-.8-4.8.7H873l-1.8 1.8-5 1.8-5-1-2.1-4.1-2.4-2.4-2.8-2.3-3.2-3.2-4-.7-1.7-4-3.8-3-2.7-2.7-3.7-1-1.3-3.5-3.3-1.5-2-2-6.7-.7H818l-4 2.2-5-.8-3.8 1.3H801l-5.7 4.2-2.7 2.7-2.4-4.2-1.1-2.2h-2.8l-.8-3.6-1.4-2.2 2.5-1.5V488h-1.3l-2.3-2.4-1.8-.3.4-4.3-1.1-1.9-1.2-3.3-2.7-1.3-1.9 2.7-2-.8-.2-2.8-1.3-1.3-2-.5-2 2-1 2.5-3.4-.9-1.1-2.1 2-2.5-1.2-1.9-2.3.8-2.9-.8-2-2v-2l2.9-2.9 3.2-2.7h3.2l1.5-1.5 1.8 1.8 2.5.5 1.1-1.1h3.3l1.4 1.8h2.1l.6-2.5 4.2.8 1.5-1.5 3-.6 2.8 1.3 3.5 3.5 2.7-1.2 3-.7 1.4-1.9 2.3 1 1.7-1.7h1.9l1.8 1.8 6.6-6.6 3.6.6v-2.3l4.5-1.7 3.2.6 3.3-2.1-.2-3.4 5.4-3.2 5.1-4.2 1.3.8 2.1-1.1 1.9-2.4 2.7-.4 2.3-2.3 3-.6 3 1.7-1.1 2.9.1 2.3-2.1 2.9v5.1l-1.1-.1-.9 2.3 1.8 3v2.3l-2 1.1-1.2 2.8 2.1 2.6 4.1.6 1.4-1.3 2.6-.9 4.6 6.3 2-1.8 2.1.1 3.1-4.5 3.2-1.2 1.1-1.1-.7-3.1.9-2.6 3.2-.6 1.7-1.7 1.8-3.1 3.1-.3 2.9 2.9.9 5.1 3.1 2.1-1.2 4.1-5.4 2-2.9-.1-1.3 1.8 3.4 3.4.1 2.2-3 3.4-.4 4.8-2.8 2.6-.1 2.3-2.3 2.7 2 3-1.6 2.9.7 6.7 1.8 1.8h1.7l1.9 2.9 1.4-1.4 3.6.4.6 2.6 3.1 2.3.3 2.4 1.4.4 1.9 1.4.1 4-1.6.7.7 2.6-.8 2 .3 3.7-3.5-1.3z"/><path fill="#DDD" stroke="#FFF" d="m928.5 506.1-4 2.2-1 3.3-2.7 4.3-3 3.8 1.3 4.2-3.5 2.8-3.5 2-3 1-.8 3h-3.2L902 531l-2.3-.8v-3.8L897 524l-2.2-2.2-.3-3.7.8-2-.7-2.6 1.6-.7 1.8.3 1.8-2.7 1.5-1.5-.3-3.5 2.7-.4 2.8.5 3.8-1.8 2.7 1.3 3.3 3.9 2.1-2.9 4.6-1 1.7-3.1 3.4-.4 2.9-1.1-.3 2.7 1.1 1.1-.4 1.9h-2.9zm42-10.8 1.8 4.8 1.4 5.4 1 4.8 1 6.5v6.3l-1 3.4V541l-1 6 1 6.1-.4 8v3.9l-3.3 5.5-2.2 4.6-2.5 4.7h-2.1l-4.2 1.7-3.5 2-2.4-1v-2.3l-1.3-1.2-1.2 2.8v3.1l-1.4-1.4-2.2-2.2v1.7l-.7 4.1.7 2.9-.9 3.2-1.4 1.4v4.4l-3.2-.2-1.3-1.3 1.1-3.9 2-4v-3.3l-1.7-3.9-3.6-3.6-1.8-1.8-1.5-3.9-3.2-3.1-3-1-.1-3.3 2.1-2.1 1.8-1.8v-3.3l2.4-2.4 2.6-1.3 2.8.9 2.4-2.4 1.5-3-2.7-4.2 1.4-3.5-1.7-3.6-.3-3.9-2.4-3.1.7-2.7-1.8-3.2 3.2-.4v-1.4l-1.8-1.8.4-3.2 2.9-4 2.4.7.6.6h2.3l.8-1.2 3.4.5.3-1 3.4-.5 2.7-3.4v-4.7l-2-.6.5-2.7 4-1.5 1-2.3.4-3.3-1.3-3.2-1.3-.3-1 2-2.8.3-.8-2.3-3.1-.4-.5-2.3 3.3-2.8 1.2-4.5 2-.3 2.3 1.8 1.8 1.8 2.4-.1 1 2-.8 1.8 2.9 2 2.7-2.3-.2 6.2zm-28.4-285.8 2.1 2.1v5.3l1.7 4 .3 6.3-1.2 3.8-1.3-3.3-3-1.5v4.2l-2.5-2.5-1.7-1.7-1.3-2.8-4.7-4.3 1.3 3.7-1.3 4H926v2.7l-1.5 5.5-1.8 2.2.2 7.3 3 2-.5 4.7 3 4.7v5l.9 6.6 2.8 2.8v3l2.3 2.3 2.2-.3 1.9-1.8 1.4-1.4h2.5l-.2 3.2-2.7.8v4.5l-5 .8 1.2 5.8-.5 2.5-3.2 1.3v3.5l-1.2 3.2-3.2.2-1.5-1.5v-2.2l.7-2.2 2.8-.9-1.3-1.3-3 1.2-3.2.5v1.5l-4.7 2.2-2.3 2.8-2.7.7-2.2 2.2-.8 2.5.8 3.2 1.8 1.8-2.2 2.3-3.5-1.3 1.1 3.6-2.6 2.6-2.3 2.2-.8-2.6-3.6-3.6h-2l-1.5 1.4-2-1-2.9-.1-2.5 3-2.3.1-1.9-2.8v-3.8l3.1-1.8-2.5-3.4v-2.5l-2.3-.8-3.8-2.4-2.3-1.1-6.4-.4-3.4 4-2.7-.1.5-3.1-2.5-2.5-.6-2-2.2-2.2-3.9-2-1-2.4-2.7-3.6v-2l-1.4-.6.6-3.3 1.5-1.5-2.3-1.4.5-2.9 4.4-1.8V267l3.3.1-.3-3.7-2.5-.7-1.7-2.2 2.1-2h2.1v-2.6l2.1-1.5v-1.9l2.6-.6 1.6 1.9 2.2-.3 1.1-2.4-.7-2.1 2.3-3.6.7-2.4 2.3-.4v-2.1l-1.1-3-2.7-1.6-2.6-2.6-.2-6.3-2.5-1.3-1.8-2.4v-2.8l2-.4-.9-2.7-2.8-.8.5-2.5 2.9-1.1v-2.9l1.4-1.4h3.2l.3-3.4h4.2l1.7-1.7-1-3.4 1.5-2.8-2-3.2 3.7-1.6 1.7 1.7 2 2.9h2.8l3.3-1.3 1-2.1 3.4.7 4-.4 3.5-4.9 5.3.8 5.5-6.5 4.2.4.1 1.8 1.1 1.1-.8 2.3 4 1.8.5 2.5 4-.8 1.3 3 2.8 1.1.1 2.3 2.1 2.1 2.4-.7h2.9l.5 2h1.9l1.4 1.6-1 3.6h1.5l1.1-1.8 1.1 1.1v2.3l3.8.3zm-718.3 61.2-.6.9 1.1 1.3 1.3-1.3-1.8-.9zm141 2.1h-1.7l-1.8-2.7-1.1.6-3.1-3-2.5-2.6.9-2.7 2.5-.8.9-1.5-1.7-1.4.2-3.6-1.1-.3-1.1-2.7-2.2-.2-1.8-2.5.6-3.4 2.4-3.3 2.9.3.9 1.1 1 .4.5-2 3.5-1 2.7-2.9-1.8-2 2.4-1.5 2.7 1.1.8-2.3v-2.2h3.4l1.7 1.6 1.7-1.7.4-1.6 3.8-.8-1.3-1.3-3.2-1.1v-1.2l3.8-1.1 3.9-1 2-2h2.5v-1.8l3.7-.1-2-2 3.2-.2 1.2 1.2-.2-3 1.5-1.5-1.6-2 1-1.6 1.8 1.8h2.3V210l3.3 1.2 1.7-1.8 1.7-1.9h2.1l3.6-1.7 2.6.9h3.8l2.5-2.5 2.9.2 1.4 2h3.1l1.6 1.5 2.7-.8h3.8l2.5-2.4 2.9-1.6 3.9-1.5h3.7l2.1 3.3v3.6l-3.2 2.9-2.9 2.7-3.7.3-4.6 2.1-4.1-1.5-1.9 2-4.7-.2h-6.1l-2.2 2.5h-4.7l-3.5 1.9 1.1 2.4-2.5.9-2.8-.3h-2.6l-.3 1.7-2.7-.8v2.8l-2.8 1.9-2.2 1.7v-2.6l-1.8 1.7.4 3h-1.8l-1.3-1.3v3.7l-1.3-1.3-1.7 1.7-1.4 1.5h-2l-1.5 1.9-2 3.3h-3.2l-2.5 2.2v2.8l-2.6 1.1-.9 3-2.1 2.1v3.8l-1.1 2.7 1.4 4-1.2 3.9 1.6 2.6.8 2.7-.9.9-2.6 1.2v-1.9l-2.4-1.4zm96.3-148.7-1.2.4 1 1.4v1.2h1.7v-2.4l-1.5-.6zm-.3 10.6-.9 1.4-3.3.6-2.1 1.2 1.6.7-.7 1.8 1.4.3h2.7l2.2-2.1 1.6-1.7-.5-2.4-2 .2zm-10.4-2.2-.7.7 1.3 1.3 2.4-.9v-2H452l-1.6.9zm-1.8 3.9-1.8-2-1.4 1.3-1 2v2.5l2.1.4.5 1.5 2.6-.6 1.7-1.7 1.3-1.2.7-2.1h-1.9l-2.8-.1zm-7.5 8.7-.8.8v1.6h1.7l.6-2-1.5-.4zm-3.5-6.4-.8-.8H434v1.8l-1.5 1.5.9.9 3-.6 1.1 1.1 2.6-.6.8-1.8 1.9.7-1-2.3-1.7-1.7-2.5 1.8zm13.9-20.8-.7 1.5 1.3 1.3 1.2-1.3-1.8-1.5zm-2.7 3.5h-2v2.2l2.1 2.1v1.8l1.9-.9-1.2-2.4-.8-2.8zm-12.5 6.5h-1.8l-.4.3 1.5 1.5.7-1.8zm1.5 2.8-1.2 1.2 1.2 1.3 1.3-.1-1.3-2.4zm1.1-5.5v1.7h1.7l-.3-1.9-1.4.2zm2.4 4.1v1.4h1.5l-1.2-1.1-.3-.3zm1.5 3.3.6.6 1.1-1.1-1.7.5zm1.7-6.6v1.7l1.5.2V126h-1.5zm-2.2-3.5.8 1.6.8-.8-.8-.8h-.8zM426.1 133l-.9.9 1.6 1.7h1.8v-3l-1.2-1.6-1.3 2zm4.2-2 .6 1.7h1.2v-1.5l-1.8-.2zm-7-10-1.3 1.2v1.4l-1.4 1.5-2.6-1.9-2.1 1.2v1.5l-2.6-1.9-2 .7.6 3 1.9-.6v2l2 .5 1.8-1.8 2.5-1.1 2.2.7h3.1l2.2-2.3-2.1-2.1 1.4-1.4-2.4-1.5-1.2.9zm-7.2-3.1h-2.7l-1.6-1.7-1.2 2.3 1.5 1.4.5 1.7 3.3-1.1 1.1 1.1 2.1-.9.9.9v-1.9l-1.4-1.4h-1.3l-1.2-.4zm2.5 13.2h-1.1l.4 1.5 2.2.1-1.5-1.6zm.4 3.3-1.1 1.1.9.9 2.1.5-1.4-1.4-.5-1.1zm9.1-16.2v1.7h1.3l1.2-1.3-2.5-.4zM274.5 290l-2.9 2.9-2.1 2.6v-3.7l2.3-2.3-2.8-4.4-1.9-1.9H264l-4.5 1.4-4-2.1-4.8 1.8-5.2-.8-.2 5.8-2.8 2.3 1.2 2.9-1.4 1.4-4.8-1.4-1.8-3.9-2.9-2.9-1-4.9-1-7.5H228l-2.8 3v2.8l-.4 3.7 2.2 2.2-.8 4.1-4.2 3-3.7-3.6-3.4-3.5-.9 1.1-1.2 1.9-1.8-1.1-.7.7-1.3-1.6-1 1.1.2 2.6-1 2.3-2.1 1.1-.8 1.9-.5 4.1 3.2 3.2-1.2 3.4-2.8.8.3 2.3-.5 2.7-3.3 3.2-1.2.3-1.3 1.5-2.5 5 .3 1.6-1.3 1.3.9 4.6 1.9 1.2v2.1l2.6 1.3.7 1.7 1.1.7 1.5 1.5h1.7l1.4 1.4.6 1.9 3.4.2 2.5.6 1.1 1.1 2.1.6.8 2.1 2 1.9 1.3 1v1.7l1.4.5h2.8v-1.1l1.4.4h1.8v2.2l1.1 1.1h1v1.4l2 1 1.2 1.2 1.8-1.7.5-1.5 1.8.8 1.3 2.2-1.4 1.4 1.9 1.1v1h1.4l1.8.7-.8.8 1.1 1.6 1 1.1 1.8-1.6 1.3.4.9 1.5.6.7 1.6 1.6-.6 1.8 1.5.8 2.1-.6-.1-1.2 1.4.4h2.6l.4 1.4 1.6.3 1.5-1.7 1.6-1.2 1.4-2.4-1.8-1.9 1.3-1.3 2-1.2.2-1.5 2.6-1.6 2.2-2.2 1.5-.7 2-2-1.4-1.5-.1-2.2-1.7.8-1.1-1.1H266l-2.2.5-.9 2.1-1.1-.4-1.5 2.2-1.4-1.5-1.6-.5-1.7-.8-.3-2.9 2-1-.3-1.8.8-.8.6-1.6 1.9-.5 2.4.5.4-1.5-.3-2.6-1.3-1.2.7-2.6 2.2-1.4v-2.4l.7-2.3-1.8-1.8-1.7-2.5v-2l-.4-2.2h2.1l2.3 1.7 2 .7 1.4 1.4 2.8.6 2.5 1.4 2.6 2.7.5 2.5 1.9-1 2.3-.8 1.7 1.1 2.2.5 2.1 1.7h1.5l1 1 1.5-1.5 1.5-2.5-1.3-1.3-.5-2.2 1.1-2.3-.8-1.6-1.9-1.9-.7-1.4 1.5-1.5 1.2-1.2V316l1.1-1.2 1-2.5 1.8-1.8-1.4-1.4-3.2-1.5-.3 1-2.9 1-1.5-.6-2-2.3-1.5-1.5-.7-2.8-2.6-2.6-1.5-1.9-.9-3.5-1.3-2.8-1.3-1.6zm656.3 105.9-1.2.3-.9-2.5v-2.2l3.7 1 1.9.9 1 2.3 2 2 3.6.7.9 2.3 4 2.6h2.2l1.7 2.5 1.4 3.9 2.2 2.2 4.3 4.4 2.7.7 3.8 1.4 3.6 3.2 4.9 2.7 3.2 2.7 4.2 2.2 3.6 2.2 2.3 1.9 4 1.6-.6 1.9-1.4 1.4-2.7.9H983l.6 3-.6 2.2v1.7l2.5 3.8 1.9 3 .1 4.5 1.9 1.9 2.9 2.9 2.5 1.6h3.7l2.2 2.2h2.5l1.3 2.7 3.2.1 1.9-1.9 3.4 1.9 2 2.6v1.7l-4.6-1.9-1.7 1.7h-3.7l-1.2 3 .7 2.9 2.3 2.3 1.7 3.8-2.3 1.9-1.9-2.3-2.5-2.5-4.3-4v-2.7l-2.9-2.9-2.7-2.7-1.9-2.5-2.3-4.5-2.9-2.7-3-1.7-2.9-.9-2.5-5.2-5.3-7.4-4.3-4.3-3.6-3.6-3.2-4.3-2-3.3-5.5-2.5-4.3-1.9-2.6-.3-3.5-4.8v-2.2l-3.7-3.8-2-3.7-4-1.3 1-2.9v-2.2l3.3 1 .6-2.9-1.9-1.9v-1.1l-1.9-1.9-2.7-.9zm121.9 75.3.5 3 .3 2.9 1.2.4v-2.3l.9-1.8v-2.6l-2.9.4zm9.9 1.7v1.3l1.9 1v-2.1l-1.9-.2zm-5.9-11.6 1.7.7.6-2.3-.9-4.6 1.6-1.6-.3-3.4-2.4-.7-.7 3.8.9.9-.8 2.8.3 4.4zm4.3-19.1-.7.7.6 2.5 1.1-1.7-1-1.5zm1.8-8.8.7-3.7-1-2.3.5-2.5 2-1.9.5 2.6-.4 2.8.5 3.1-1 2.4-1.8-.5zm1.8-32.1v5.7h2.1l-.6-2.4v-3.5l-1.5.2z"/><g fill="#DDD" stroke="#FFF"><path d="m984.2 298.3 2.2 4 4.5 3 4.7 2.5 7.2 2.2 3.3.7 3 2 1.8 2.5 6.3 3.3 5.5 2.3 5.8 2.7 3 3h3.3l2.4 2.4 3.1 1.6h4.8l1.8 2.5v-3.3l-.8-4.5-1.7-7-.7-5.3-3.2-3-4.3-4.3-2.8-1.2-1.7-6 1.3-3v-3l3.7-.5v-2l-4.8-1.2-1.4-1.4-2.9-1.1-3.3-5.2-1.2-6.7 1.7-3.7 2.8-1.8 2-1.3-1.2-3-3.3-2.7-5.7.7-2.4-2.4-3.1-.8-3.5-5.8-1-4 3.3-1 1.3-3.2-3.3-3.3h-2.8l-1.7 1.7-4.3-1-4.3-3-.6-3.7-4.3-4.3-1.2 2.5-1.6 1.6v1.4l1.3 2.8h-4.7l-2.8-2.8-4.6-2.4-.5-3.7-.7-4.7-3.2-3.2-2.3-2.3-2-2-2.5-4.2 1.8-1.8v-4.3h2l3.1-3.1-3.1-1.4V201l-1.8-4.8 2-.2 2.3 2.3 3.2 1.5v-2.7l-2.8-4.3v-2.5l1.3-4.7-1.8-1.8 3.5-5 2.2-5 4.2-1.3 3 1.5 2.8-2.5-1.8-1.8-2.8-3.2-1.7-6.7V155l-3.2-2.8-1.7-5.2-.8-5.3-1.7-4-1-4.7-1.8 2.6-2.9.2-2.1-2.1-2.5.8-.7 4.3-1.2 4.3-2.5 3.9 1.5 2.2-1.7 5.1-1.7 3.7-2.8 1.7-1.9-1.9-2.5.8-2.3 2.3-2.9.5-2.6 3.4-2-2-1-2.8-1.4-2.6-.9-3.4-2.1-.6-2.9 2-1.7 1.7-2.4-1-4 .6.8 2.5-1.4 2-1.8-.5-4 1.2v2.9l-1.8 1.3-1.1 3.5-2.8-.2-3.3 2.5 1.2 1.2-1.7 1.7-2.7 1.5-1.5 3v2.9l1.2 1.4 4.2.4.1 1.8 1.1 1.1-.8 2.3 4 1.8.5 2.5 4-.8 1.3 3 2.8 1.1.1 2.3 2.1 2.1 2.4-.7h2.9l.5 2h1.9l1.4 1.6-1 3.6h1.5l1.1-1.8 1.1 1.1v2.3l3.5.4 1.6-2.3 1.5.2.3-2.2H942l-2.8-2.8-2.9-2.9-2-1.8 1-2.7v-3.5l3.7-2 2.6-2.6 1.1 1.1-3.2 3v3.8l3.5 2.2 2.3 3 1.9 1.9 2.1.8h2.2l2.2 4.2 2 2v5.1l-1.2 4 .2 3.3 2 1.7 2 6.2 1.7 4.2 1.5 5.2 1.3 5.5 3.2 4.2 2 6.2.8 5.3 1.7 5-1.3 1.3-1.5 1.5 1.6 2.8-1.2 2.5-1.4 1.4v1.4l3.1.7 2.8 4 .5 3.8 2.3 2.3v3.5l3.3 3.5 5.1 4.6z"/><path d="M980.7 215.1v3.2l-.3 2.9 1.8 1.1 1.1 1.5.1 2.5 2.4.9-.6-2.6-1-2 1-3.3v-4.1l-2.8-1.1-1.7 1zm56.1 15.1-2 .8 1 2.1h6.9l2.2-2.1-2.8-.9-2.7 1.1-2.6-1zm10 106.3-.9 2.6-1.4 1.4 1.6 1.6.9 1.9-.2 2.6-.2 3.3 1.5 1.5 1.7-.9V347l1.5-1.5-1.2-2.9-2-2 .1-2.6-1.4-1.5zm6.2 22.5v2.2l1.4.7 1-1.3-2.4-1.6zm-3.9-136.3-1.9 1.3 1 1 1.4-1.3 1.3-1.4-1.8.4z"/></g><path d="M975.2 133v-6l-1.2-5.3-2.8-4.3 1.3-1.3-3.9-2.6 1-1.5h3.5l2.2-4.7 3.3-1.3v-3.5l-2.4-2.4-1.3-2.9-2.7 2-1.8-1.5-2.2.3-1.8 1.8h-2.9l-.8 1.6h-3V99l-3.7.2-2 .3-2.5-.2-1 1.7-2.1 2.1-3.6.1-2 1.5v3.2l-2.2.8-1.6-1.7 2.7-3.2h-1.8L937 105l1.2-2.7 3.5-1.5h2.5l2.7-4.3-.7-3.8-1.3-4.8-2.8-2.8-2.6-2.6L938 84l-.2-3.2h-2.5l-3.7 1-2.3-2.3v-2.3l-2.9-.5 1-1 1.5-.7-1.3-1.3.3-1.6 1.7 1 1.8 1.5h3.2l2.2-1.7 2.2 1.7 2.8-2.8v-4.3l-1.3-2.5 2.8-4.2h3.2l2.5 1 3.5-1.2 1.8-4 3.5-3.8 3.8-.3 1.5-4.3-2.8-.8v-1.3h3.5l-1.2-2.7v-2.2l-1.8 2.3-1.8.5-2.2-3.3-3.1-3.1v1.8l-3.9-1.5L948 40l-3-.5 3.8-2.5v-5.5l-3.5 1 1.8-3.8-1.6-1.7-2.2-1.8v-2.8l-3.8 1.8-3 4.2h-1.2l-4 1.5-2.3 2.3-1.7 2.3-.3 3-1.8-.2v1.5l2.7.7-3.2 2.2-1 3 3 .8 4.7.3 4-.8v2l-4 2.2-2.3 2.3-3.4-2.6-3.8 1.2-2.7-2.7-2.3 1.3-3.7 1.7-3 3.2-5.7 1.7-3 4.3-4.2 1.7-3.4 3.4-3.3 3.3-3.6 2-5 2.2-2.6 2.6-5.7 5.7-5.1 4.9-1.3 4.8-2.8 4.2-1 3 1 2.8h-2.3l-2.7 1.5-.3 3.5-3 1.5-.8 3.2v1.8h3.3l1 2.3 4.2-.7 5.7 2.5 1.8.3 1 2.7-.8 2.7-3.3.8-3.7 1.7-2.7 1H858l-2.5-2.5 2.4-2.4-3.2-3.2-1.8 1.8-1.8 3.3 2.3 3.3-.7 2 1.7 1.7-1 4-4.2 3v3.3l-2.2 2.2h-2.5l-1.5 2.8v5.5l1.3 1.9 4 1.4 3.3.4.8 2.1 3 1.1 2.6 4.4-3.4 2.6-1.6 4v3.3l-2.3 1.6v3.4l-2 3.1 1.4 3.3 2.6 1.5v3.9l3.3.5 3.1 1.4 3.4-1.1h2.7l2 2 1.8 3.5h1.9l3.7-1.6 1.7 1.7 2 2.9h2.8l3.3-1.3 1-2.1 3.4.7 4-.4 3.5-4.9 5.3.8 2.3-2.3 3.2-4.1-1.2-1.4v-2.9l1.5-3 2.7-1.5 1.7-1.7-1.2-1.2.8-.8 2.5-1.7 2.8.2.7-3.1 2.2-1.7v-2.9l4-1.2 1.8.5 1.4-2-.8-2.5 4-.6 2.4 1 1.7-1.7 2.9-2 2.1.6.9 3.4 1.4 2.6 1 2.8 2 2 2.6-3.4 2.9-.5 2.3-2.3 2.5-.8 1.9 1.9 2.8-1.7 1.7-3.7 1.7-5.1-1.5-2.2 2.5-3.9 1.2-4.3.7-4.3 2.5-.8 2.1 2.1 2.9-.2 2-2.5zm-117-83.7-1.3-.5-1.2 1.2-2.5 1.3-2.1 2.1.2 3.5-.9.9.5 2.9 1.6 2.4 1.8 4 2.6.5 1.8-1.7 1.3-2.5-1.4-1.6 2.2-3.2-.4-3.5V51l-2.2-1.7zM31.5 278.1l2.6.6 2.3-.6.8-1.7 2 .4 1.9 1.8.1 2.6 1.5.5.3 2 2.4.4.5-1.9-1.3-1.3 1.2-1.1.7.7 2.2 1.9v2.9l-.3 2.5 1.4 2.1 1.3.9.4 3.3-1.1 2.4-5.6 2.8-8.4-10-4.9-11.2zm111.2 21.4-1.5-1.1-1.2.2.4-1.6.4-1.4v-.9l.5-.6 1.4 3.4 2-2 1.1-1.3.5.6v1.2l-.8 1v1.3l-1.5.7h-.7l-.6.5zm-43.5 75-1.6-2.5 2.2-.5 2.5-2.4h2.2l1.7 1.7.5 2 2.4.2.8-.8 1.4.4 2.2 1.7 2-1.3h2.3l3.1-.6 2.4.6 1.2 2.5 1.5 1.5h2.8l1 2 1 1.8-1.1 1.7-.9 1.8v2.5l-2.5 1.7-2.5-1.6-.8.8v1.9l-2.2.4-2-1.9-1.6-.9-2.9.8-1.4 1.4-1.5-.6-2.3 3.2-3.7-1.5h-2.6l-2.5-.8-.3-2.4-1.6-1.6v-2l1.2-1.3V380l.7-2.5-1.3-1.3.2-1.7zm59.7-32.5 1.2-1.2.5-2.4-2.2-3.5-2.4-.8.7-1.6 1.1-2-.9-2.5-.4-2.5-1.3-1.3-1.9-.7 1-2v-2l-2.1-1-.3-2-2.4-.1-1.4 1.4-1.8-2.3.5-4.3-1.5-.3-1.7-1.7-1.6 1.3-1.7.5-2.5-1.1-2.7-.3h-3.8l-1.2-2.3-1.4.7-1.2 1.2-2.2-.2-2.8.2-1.2 1.3v2.1l-1.3 1.2.6 1.4 1.7 1.3-.7 2.4-2.3 1-1.6 1.6-1.4.8v2.3l-1.5.8-1.4 1.3 1.4 1.4 1 2.2 1.5 1.5h3l1.4 1.5 2.5-.2 2 1.2h3.5l1.9 1.9 2.3.2 1.4-1.4h2.8l1.8-1.7h2.2l1.9.9 1.3 1.3.6 2.4h2.4l1.6 2h2.2l.4-1.4 1.4 1.4 2.2 1.1 2.8 1z" fill="#DDD" stroke="#FFF"/><path fill="#DDD" stroke="#FFF" d="M135.1 360v2.2l.9.1.3 1.8h2.5l1.4 1 2.2 1.2h2.6l1.7 1.7h2.8l2.3 1.3 2.2.6 1.9-1.8 3.2-2-1.2-2.7v-1.6l1.8-1.8-.7-3 1-2.2h2.4l1.1-3.4 3.2-1.4v-3.3l.9-2.8-2.4-.8-2.7.5-1.9-.8-1.6-.8-2.4-1.1-2.7-1.1-1.4-1.4-.4 1.4h-2.2l-1.6-1.9h-2.4l-.6-2.4-1.3-1.3-1.8-.9H140l-1.8 1.8h-2.8l-1.4 1.4-2.3-.3-1.9-1.9h-3.6l-1.9-1.2-2.5.2-1.5-1.5h-2.9l-1.5-1.5-1-2.2-2.6 2.2-.3 2.1-1.5 1.5-.3 3.5-.9 2-1 1.8H106l-1 2.8.3 1 2.3 1.3.6 3.4 2.1 2.1 2.3 1.3 1.6 1.6 3.3.8 2.6-.8 2.8.8v1.8l1.3 1.3 1.3 2.5 1.8 1.4 1 1.9 1.1-1.4h1.9l1.3-1.9 2.5-1.1z"/><path fill="#DDD" stroke="#FFF" d="m150.7 388-.8-1.6v-2.2l-1.6-.7-.8-2.2 1.9-1.4-.1-2.2 1.4-1.4.6-2.1 1.9-.9-.5-2 1.2-1.4-2.2-.6-2.3-1.3h-2.8l-1.7-1.7h-2.6l-2.2-1.2-1.4-1h-2.5l-.3-1.8-.9-.1V360l-2.6 1-1.3 1.9h-1.9l-1.1 1.4-.8 2.8-3 1.3-2.3 2.3-1.2 1.8 2.3.7 1.1 2.1 1.7 1.8h2.7l1 2 1.1 1.8-2.1 3.5v2.5l1.5 2.4 2.1.4v1.8l-.7 2 .6 2-.8 2.8.3 2.3 2.5-.4.4-1.8 2-.4.7.7 3-.1.9-.9 2.6.5 1.6.6 1.7-.4.7-.7 1.9.2h2l-.1-2.4 1.1-.5.6-1.7.2-3.2-1.3-1.3-1.4-.8zm-8.2-8.4-1.1 1.4.4 1.8h-2.3l-.6-.6-.7-.7-1.2 1.2-1.7.1.7-1.8v-3.2l1.2.2 1.1-1.5-.4-.9 1.1-.9 1.5-.4-.1 1.1.6 1.1.1.2 1.6.7 1.1 1.1-1.3 1.1z"/><path fill="#DDD" stroke="#FFF" d="m141 376.6-.1-.3-.5-1v-1.1l-1.5.4-1 .9.3.9-1 1.5-1.2-.1v3.1l-.7 1.9 1.7-.1 1.2-1.3.7.7.6.7h2.3l-.4-1.8 1.1-1.4 1.2-1.2-1.1-1.1-1.6-.7z"/><g fill="#DDD" stroke="#FFF"><path d="m375.4 281.7-2.5 1.2-1.8.6.5 4 .3 2.1 1.6.4.7 3.2 3.1.3 1.1-2.6-1.5-2.5.1-2.9-1.6-3.8zm-53.6-13.1-3.3.9-2 2.5-1.5 2 1.1 2.9 2.4.9 2.3.9 2.1-1.5 2.6.4 1.3-3.1-2.1-2.8-.2-2.2-2.7-.9z"/><path d="m396.9 309-1.4 2-1.6 1.6-1 1 1.6 1.5.3 1.3 1.3.4v5.7h-1.6l-1.9-1.1h-1.9l-3.3 2.8-2.9.2-1.3 3.2-4.4-.8-1.2 1.9-1.9 1.9-1.9 1.1-3.7 1.3-3.2.8-3.8-1.9-2 .4-2.3-1.9-4.4-1.8-4.5-2.9-3.3-1.3-5.4-2.1-2.7-2.7-3.3-.3-5.2-3.3-2.6-2.6-4-1.8-4-3.4-3.7.4-2.8 1.8-17.3.1-1.4-1.4-3.2-1.5-.3 1-2.8 1-1.6-.6-2-2.3-1.5-1.5-.7-2.8-2.6-2.6-1.5-1.9-.9-3.5-1.3-2.8-1.3-1.7 4-.8 3.3-4.8v-4.2l1.3-2.8 4.3-2.2v-2.7l4.2-2.5v-4.2l-.7-4h2.8l.9 2.1 3.8 3.8 2.8 4.3v5.8l-1 3-1.5 1.5-2.5-2.5-3.5-.8-5.3 1.8v4.3l1.3 4v3.3l3.8 1 3.7 1.7 4.2-2v-3l4.3-1 4.2 2-.7-2.7 6.5 1.2 3.5-.7 6.3.8h3.7l1.8 3.3h1.7v-3l5.3-1.7h2.8l1.2 4.3h-3l-1 3-2.5.8 3.8 3.5h2.7l5-2.2 4.8.9 5.2 5.2 1.8-1.8h3.5l4.4-1.4 1.8 1.8-.5 2.3-2.7 1.8v2.8l3.2 2.7.3-3.1 1.4-1.4 3.3.8V306l3.2-.5.7-4-.5-4.8 3-1.5 2.6-.8 3.1 3.1 1.3-1.3 3.4 4.3 3.9 3.9 3.2 3.2.5 1.4z"/></g><g fill="#DDD" stroke="#FFF"><path d="m469.6 278.4-1.7 1.7-1.8 1.5 1.7 1.2 1.3-1.2h2.2l1.9-1.8-1.8-1.9-1.8.5zm-5.5-16.8-1.3 1.2.9 1.4 1.8-1.2 2.3.6-.6-1.4-3.1-.6zm-6.9 6.1-.8 1.9 1.2 1.1 1.4-1.7-1.8-1.3zm-16.2-9.9-1.7 1.2.7 1.4-1.3 1.7.3 1 2.8.8 2.5-1.2 1.5.1v-1.5l-2.4-.6 1.2-1.4-1.3-1.9-1.7.6-.6-.2z"/><path d="m392.3 326.9.3-1.8 1.3-.7.8-1.8h1.6v-5.7l-1.3-.4-.3-1.3-1.6-1.5 2.6-2.6 1.4-2 1.3 2.7 3.9 3.9 2.7 4.2 2.8 3.8v3.3l2.3 3.7 3.3-2v-3.5l3.8-3.5-2.7-.8-1.8-4.3.7-4.7-3.2-2.2-1.8-3.6 1.6-1.6 3.3-1.7v-2.7l.8-4 1.5-2v-2.5l-2.2-.7 1.2-3.3 1.8-2.3 3.3-1.2 3.6-1.8 1.3-1.3 2.8-2.8 2.2-4.8 1.7-4 1.8-4 3.2-1.7 2 2.8h4l2 2h3.5l1.5 5.7-1.7 1.7-.6 6.1-4.8 4.8-1.3 4.3 2.8 2.5-1 5.7-.8 4.5-3.3 5-1.2 7.2-1.8 6.3-1.3 3.2 1.3 4.4 2.9 2.9-.5 2.7-3.7 2.8-.7 6.2-3.7 1-4.3 4.3-2.5 3.7-2.3 1.3-4.2-.8-2.5 1.7-2.8-1.8-1.8-1.8-2.5-.8v3.2l2.5 3.8 2.5 1.2 3.3 2.3 2.8-.2 2 2.8h3l.6-2.9 1.8-1.8h2.2l1-1 4.2-1.2 3.3-1.8v-3.5l1.5-1.5 2.6-2.6 2.1-2.1 1-4-.8-3.5-.3-3.2 2.3-2.3 2.3-2.3h3.5l3.8-.5 1.1 3.2 1.6 1.6 2 5.2-2.7 2.7.2 4v2.5l3.3 3.3 3.8.8v-2.3l-3.8-1.1-1.4-1.4v-2l-.3-3 2.7-.8 1-2.2-1-3.2 1.2-2.7-1.7-3.3-2.2-2-1.3-1.3-4.1-1.4-2.3-2.3-1.9 1.9-2.5 1.2-1.3-1.8h-3l-.5-3.2 2-2-.5-5.3 2.3-3.7 1.5-4.3 3.3-3.3-1.2-3.7-1-3.2.4-3.4-2.4-2.4 2.7-2.7 4.2-4.2h3.5l2-3.2 1.3-3.5-1.2-2.8 1.2-2.5h2.7l-.8 3.5v4.8l-.7 4.3-3 3v7.2l3.5 2.7 2 1.7 2.6-1.6 2.6 2.6 2.8 2.7v-2l-1.1-2.6-1.9-1.9-3-1.5V294l-2.5-2.5-1.2-3.7 3.5-2.3 1.7 1.7 2.7 2.7 2-1.8-.7-2.2-.4-1.9 1.9-1.9.2 2h1.6l.7 1.8 1.3 1.3 2.3.6 2.3 1.3.6 2.2-1.6 1.6.3 1.8-3.2.5-1.4 1.4-.9.9 1 2.2.8-.8 1 2 3.6 2-.3 4v5.8h-3.3l-1.3 2-2.5 2.5-3 2.3.2 3.1 1.5 1.5.5 1.8 2.1 2.1 3.2.5.4 2.2 1.1 1.1 2-1.8 1 1 2-1.9-.1 3.3 2.6.5v2.6l1.6 3.8-.9 2.4H486l1.3 2.5-1.3 2.8-1.8 1.8-.6 2-2.3-.5-.1 2.7 1.6 1.6.5 3-1.4 2.5 1.5 1.5v2.3l3.7 2.2 1.4 2.9-2.3 2.1v1.7l1.2 2v3l-1.5 1.2 1.8 3.3h2l2 2 1.5 3 .3 3.8-1.7 1.7.8 3.5 3.8.8 1.9 1.9 1.9-1.9.7 4-.7 3.5 1.2 2.7-2.3 2.3-2.4 3.1-1.7 3.2 2.5 3.5v4.2l-2.4 2.4-.3 3.8-1.4 1.4-3.9 3.9-3.5-4.3h-2.3l-2.5.8-2.5-4.2-4.8-1.5-1.6 1.6-3.4-4.4-1.3-3.5-3.5 2.3-3 1.7-1.3 2.3h-12l-2.7-2.7-3.5-1.8 1.2-3.2-4.5-1.8-1.6 1.6-2.7-2.7-4.1-1.1-2.8.7-3.3-3.5H421l-2.5-4h-2.8l-5.8.7-1.2-3.3.8-3.3-3.8-3.8v-2.9l-.9-4.5-4-4h-4.5l-1.8 1.8-2.5-2.5-2.3 2.3-4.5-.8-2.5-2.8 2.9-2.9-3.8-3.3-3.8-2-3.5 1.5-3.5-1.5-4.5 1-3.3-3.3-2.8-2.8-1.6-1.6 3.1-3.1 1.3-4.1-.7-4.5.3-5.5 4.3.2v-3.7l5.3-3 5.3-1.2h5.7l1.2-3.7h3.2l3-3 4-2-2.6-2.6 3.1-1.3v-2.2L392 328l.3-1.1z"/></g><g fill="#DDD" stroke="#FFF"><path d="m890.7 410.8-1.4 1.6v4.2l2.4-1.1 1.3 1.3 1.5-1.4.6-2.9-1.6-2.3-2.8.6z"/><path d="m840.3 436.8-1.9-4.4v-3.3l-2.2-2.2 1.9-1.9.6-4.3-4.6-2h-3.7l-.4-2.2 2.6-.5-1.4-2.7.7-5.1-3.1-.5-3.1-3.2 2.7-.6.3-4-1.2-1.2-.7-2.1 1-2.6-2.1-2.1 1.8-2.4-1.5-1.5v-3.6l3.4-1.8 2.3-1.3 2.7.3 2.2-2.2 3-1.2.4-2.9-1.9-1.9 1.1-2.8 3.9-.7 5.1-5.1-.2-5.7 3.6-1.2V356l-3.6-3.6-.8-2.5-4-4-2.6-.6-.5-3.2.6-3.9-2-2 3.1-4v-3.5l.2-4.4-1.6-1.6-.8-3.1-1.5-1.5-.1-3.9 2.9-.6 2.5.6 3.2 1.8 3.2-1.7 2.6-.8 2.6-2.6 1.9-3.3 2.5.1 1.5-.9 1.1 1.1 1.4-.5v-2.8l-.2-4.6 2.7.1 3.4-4 6.4.4 6 3.5 2.3.8v2.5l2.5 3.4-3.1 1.8v3.8l1.9 2.8 2.3-.1 2.5-3 2.9.1 2 1 1.5-1.4h2l3.6 3.6.8 2.6h-2l-2 1.8 1.3 2.2 1 1-2.8 1.8h-3.8l-3.8 3.7-2.4 2.4-2.7 4.5-2.8 2.8-2.8 5.7-.5 5.5 2.7 5.3-2.5 2.5-.8 5.3 1.5 3.8 2.3 2.3-2 3.3v10.5l-1 4.2v5.7l1.7 1.8v8.5l-1.5 5.7v4.7l-2.5 4.2v4.2l-1.3 3.7 1.5 3.4h2.5l2-2h2.7l2.2-2.2 2.4-2.4 1.7 1.7 2 1v2.2l1.6 2.9 2 2 1.8-1.8V427l-2.3-1v-2.5l1.8-2v1.7l2 1.5 1-.3 1 1v5.2l3.3-1.3v-1.7l1.8-2.5 1.2-1 1.8 1.3.4-2.8-1.6-1.6-1.5-2.8-1.8-3.3 3-1.7 1.8-1.8 3.7-.8h4.3l3.6.4 1.6 1.6 4.7-.7 3.2-1 2.1 2.1-1.6 1.6-1.2 1.2-1 1.8h5.8l.7 2.2 2.5 2.5 3.1-.4 1.6 1.6 1.7 3.2.5 6.3 2.2 6.7 3.4 4.9 4.3 4.3 1.7 1.7.8 2.8 3.3 3.3 2.3 4 .8 2.3 3.1 4.8 2.6 2.6v7l-1 6 1.8 6-2.7 2.3-2.8-2.1.8-1.7-1-2.1-2.4.1-1.8-1.8-2.3-1.8-2 .3-1.2 4.6-3.3 2.8.6 2.3 3.1.4.8 2.4 2.8-.3 1.1-2.1 1.3.4 1.3 3.2-.4 3.3-1 2.4-4 1.4-.6 2.8 2 .6v4.7l-2.6 3.3-3.4.5-.3 1.1-3.4-.5-.8 1.1-2.3.1-.7-.7-2.3-.7-2.9 4-.4 3.2 1.8 1.8v1.4l-3.3.4-.8-3.7-4-3.8 2.5-2.5v-3.7l-2.1-2.1-2.4-2.4-.7-2.2.4-1.9-1.1-1.1.3-2.7-2.9 1.1-3.4.4-1.7 3.1-4.6 1-2.1 2.9-3.3-3.9-2.7-1.3-2.5 1.1-1.3.7-2.8-.5-2.7.4.3 3.5-1.5 1.5-1.6 2.9-1.9-.5-.1-4-1.9-1.4-1.4-.4-.3-2.4-3.1-2.3-.6-2.6-3.6-.4-1.4 1.4-1.9-2.9H880l-1.8-1.8-.7-6.7 1.6-2.9-2-3 2.3-2.7.1-2.3 2.8-2.6.4-4.8 3-3.4-.1-2.2-3.4-3.4 1.3-1.8 2.9.1 5.4-2 1.2-4.1-3.1-2.1-.9-5.1-2.9-2.9-3.1.3-1.8 3.1-1.7 1.7-3.2.6-.9 2.6.7 3.1-1.1 1.1-3.2 1.2-1.6 2.2-1.5 2.3-2.1-.1-2 1.8-4.6-6.3-2.6.9-1.4 1.3-4.1-.6-2.1-2.6 1.2-2.8 2-1.1v-2.3l-1.8-3 .9-2.3 1.1.1v-5.1l2.1-2.9-.1-2.3 1.1-2.9-3-1.7-3 .6-2.3 2.3-2.7.4-1.9 2.4-2.1 1.1-1-.4z"/></g><path fill="#DDD" stroke="#FFF" d="m72.6 502.4-1.3-1.7-1.8-.8-1.8-2.8-1.4-1.4 2.3-1.8-.5-2.6 1.8-.6-1.3-1.3-4.5-4.8-1.9 1.1-1.8-1.8.2-1.7.6-2.2-2.3-1-1.5 1.5-2-1.8-1.8-1.3-2-.3-.7 2.2 1.3 2.5-.5 4.2-2.5-.8h-2l-3.8.2-2.8 1.2-1.2 2.5-2.5-.8-2.7-3.3-2 .3-1.8 1.8.8 3.3-1 3 1.3 2.7 2 1.8-.3 5 1.7 2.5 1.3 2.8.7 5.7-.5 7.7 1.3 4 2.2-.3 1.7 2.3 1.3 1.7 1.8.3 2-2 2.4-.4 1.7-1.7h1.7l.9 2 1.4 2.1H58l2.5-3.1.9-1.8-.6-2.4 1.8-.5 2.8-2.1-1.6-1.6 1.4-2.2-1-2-1.3-1.1 1.4-2v-2l1.3-1.4 1.3.4.9 1.4 2.3-.3 1.5-1.5-.3-3.4 1.3-1.6zm-17.3 9.2v3.7l-.9 1.8-.7-2.2-1.6.7-1.5 1.5-1.8 2.5-1.8 1.8-1.2 1v1.3l-1.8.3-.8.8-.9-1.8-2.6-3.1 1.5-1.5 1.3.6h3.6l.4-1.3-.6-1.6v-2.8h1.6l1-1.9 1.8.1 1.1-1.1-1-2.3-1.8-1.1-.5.6h-1.7l-1.2-1.3-1.4-1.4-.9-.9-.8-1.5v-1.6l1-.4 1.2 1.2.8.8 1 1.6 2.1.6.9-.4 2.1.7.5 1.8 1.5.8 1 1 1.1.8v2.2z"/><path fill="#DDD" stroke="#FFF" d="m76.8 550.5.7-1.3-1.9-1.3-1.2-1.3-2.3.5-3.1-3-.6-2-2.6-.5-2.6-.9.8-1.8-.7-1.7-1.4-1.3.9-1.5h2.9l-.9-1.4-.5-2.1-1.8-1.2v-2.6l-2-.7.9-1.8-.6-2.4 1.7-.5 2.8-2.1-1.7-1.6 1.4-2.2-1-2-1.2-1.1 1.3-2v-2l1.3-1.4 1.3.4.9 1.4 2.3-.3 1.4-1.5h1.9l1.2 1.3 1.9 1 .7 2.1h1.7l1.4-.5.7 2.2 1.4 1.4 2.9-.6 1.9.8.3 2.5 1.6 1.8.5 2.1L91 523l1.1 3-1.2 2.2 1.3 2.3 1.7 1.7 1.3 1.8v2l1.8 1.7.4 2.6 1.4 2.1v3.8l-2.6 1.7-2.5.8-2.2-.7-1.3 1.2.8 1.4-1.2 1.1h-2v1.4l1.7.9-1 2.6h-2.7l-1.3-1.2v-1.2l-1.2.1-1.2 1.7-1.4.2-.7-2.8-3.2-2.9z"/><path fill="#DDD" stroke="#FFF" d="m91.1 559.4 1.7 2.3 3.4.3.3 3.8-1.7.6-3.1 1.7-2.9 3.5-1 3.9-2.8-1.6-1.7 1.3-2.8-.2-1.8 1.4-2.9.4 1-2.8-2.5-2.7 2.6-1.8 1.9-3.2 1.6-3.4.7-2.6-2.7-2-1.1-2.2 3.4.1 1.6-.6 1-1.3 1.2-.1v1.2l1.3 1.2h2.7l2.6 2.8zm-35.8-15.1 2-.8 2-2 1.6.2 2.3-1 2.6.9 2.6.5.6 2 3.1 3 2.3-.5 1.2 1.3 1.9 1.3-.7 1.3-1.3 1.1v2l-1.2 1.2-3 .2-1 1-1.5-1.4h-2.3l-1.5.9-1.4-.3-2.3.8-2.3-2.2.7-3.3-2.9-2.4-1.5-3.8zm76.6-88.8-.2 2.9 1 4 3.8.4 2.2 1.2v2l3.3-.1 4 3.8.5 4.6-3.1 2.9 2.2 2.1 1.3-1.2 2.3.9.7 3.3 1.6 1.6h2.4l.4 2.5 2.1 2 .1 3.4-1.2 2.7-2.1 1.5h-3.3l-2.6 2.6-2.1 2.2v3l-2.9 1.2-3-.2-2.1 2.2-1.2-3.5-1.9-1.9-2.4 1.5-3.4-.1-1.7-1.7-4 1-1.1 3-3-.7-1.8-1.7v-2.1l-1.6-.6-1.2 3.3-1.7.7-1.7-1.7-2 .8-1.8-1.8-3 2.7-3.6-3.4-.8-3 1-2.8v-3l-3.7-2.7 2.1-2.1v-2.1l2.8-1.1 2.2 2.2 3.5-.6 2.3-4.5-1.5-6 4-3.9 1.3-3.6-2.3-3.6-.2-2.2 3.9-3.9 1.2-4h4.8l2.3-2.1 2.4.5.6 1.8 2.6 1.4h3.3z"/><path fill="#DDD" stroke="#FFF" d="M103.7 507.8v-3.6l-3.6-3.4-.8-3 1-2.8v-3l-3.7-2.7 2.1-2.1v-2.1l2.8-1.1 2.2 2.2 3.5-.6 2.3-4.5-1.5-6 4-3.9 1.3-3.6-2.3-3.6-.2-2.2h-4.3l-1.5 1.5h-2.3l-1.2-1.6h-2.9v-2.1l-1.3-1.3L96 460l-1.2 2.8-6.1.8.1 2.7-2.3-.3-2.3 2.3.6 3.7-2.5 1.5-3.6 3.6-4-4.3L72 470l-2.8 1.1-3.2-1.3-3.7 1.7-2.5 2.6 2 .7 1.9 1.8 2.8.7 2 1.5-.7 3-2.8-1.2-3.8-.5-.6 2.2-.2 1.7 1.8 1.8 1.9-1.2 5.8 6.1-1.8.6.5 2.6-2.3 1.8 1.4 1.3 1.8 2.9 1.8.8 1.3 1.7-1.5 1.6.2 3.3h1.9l1.2 1.3 2.1-1.7 1.6 1.2h3.1l1.2-1.2v-1.7h1.9l.9 2.4v2.2l1.6 1.6 2 .5.6 2.9.6 2.1 1.3 1.3 1.8.7.8-.8 2 .5 3.5-3.7h3.8l3.4-2.5 1.7-3.3v-2.5l-2.5 1.3-2.1-.1zm33.5-.8-1.2-3.5-1.9-1.9-2.4 1.6-3.4-.1-1.7-1.7-3.9 1-1.2 3 1 3.3 1.9 1.3-1 5.3.3 3.2 1.6 2.1 3.7.1-.9 4.1-1.9 1.1-1.2 4.1 1.7 1.7-1.1 2.7-3.5-.3-.3 2.1h-1.2l-.3-1.3-1.9-.8-1.3 1.3 1.2 1.6v2l1.1 1.1v1.6l-5.4 3.8.5 1.3 2.3.1 1.8 1.3 3 .5 1.2 1.2 2.5.7 1.3 1.3 3.6-.3h5.6l2.8-.3 1.7-1.7-2.1-2.1-1.4-2.9-.3-3 2.5.3 1.7 1.8 1.8-1.8v-4.6l-.9-5.7.8-4.3-2-2-3.2-3-2.2-1.3 2.2-2.2 1-4.3-2.4-2.4-1.1-3.3 2.5-1.8zm-44-111h-1.8l-1.8 1.8.9 1.4 1.8.7 1.2 1v2.7l1.9.5.5 1.6 1.8.8.5 3.7 1.8 3.1.6 3.8 1.8.4 1.4 1.3 2-1.6h2.1l1.5-1.5-.9-1.7 3.3-2 1-2.3 2.6-.9-1.1-3.7 1.1-1.1-3-2-2.1-4.3-1.2-5.7-3.7-1.5h-2.6l-2.5-.8-1 1-.5 2.1-.9.9-1.4-1.3h-1.8l-1.6.6.5 1.5-.4 1.5z"/><path fill="#DDD" stroke="#FFF" d="m126.8 408.8-2.4.2-.8 1.5h-2.5l-.9 1.9h-1.9l-1.7-2.4-1.2-1.2-2.6.9-1 2.3-3.3 2 .9 1.7-1.5 1.5h-2.1l-2 1.6v2.8l2.1.4 2.3 1.5 2.9.4 1.3 2.6 3 1-.6 3 2 2 2.6.3 2.6 3.5 1.9-1.6h1.9l.5-2.7-1.8-1.8.4-2.4-1-1.3.6-1.8 2.3-.7 2.7-2.8 3.4-2.4-.6-4.4-2.3-2.3-2.1 1.4-1.1-1.7.9-1.7-.9-1.3z"/><path fill="#DDD" stroke="#FFF" d="m131.7 400.6-1.3 2.3v2l-1.8 1.3-1.8 2.6-2.4.2-.8 1.5h-2.5l-.9 1.9h-1.9l-1.7-2.4-1.2-1.2-1.2-3.7 1.2-1.6-3-1.6-2.2-4.3-1.2-5.8 2.3-3.2 1.5.6 1.4-1.4 2.8-.8 1.7.9 1.9 1.9 2.2-.4v-1.9l.9-.9 2.4 1.6 2.5-1.7 1.5 2.4 2.1.4v1.8l-.7 2 .6 2-.8 2.8.4 2.7z"/><path fill="#DDD" stroke="#FFF" d="m132.9 418.8-.6-4.4-2.3-2.3-2.1 1.4-1.1-1.7.9-1.7-.9-1.3 1.9-2.6 1.7-1.3v-2l1.3-2.3 2.6-.4.3-1.8 2.1-.4.7.7 3-.2.9-.9 2.6.5 1.5.6 1.8-.4.7-.8 1.9.2h2l1.6 1.3-.6 2 2.5.8.4 2.2 1.8.5 2.1 3.5v3l1.6 1.1 1.1 1.1v1.6l.6 1.5-1.6 1.6-2 .5-1 1.1-1.6 1.5h-1.9v1.3l-1.5 1.5-1.9 1.3-1.6-.7-1.9-2.1-1.6.1-1.9-1.8-1.9 2.1-3-.4-1.1-2.8-3.1-.9-2.4.2z"/><path fill="#DDD" stroke="#FFF" d="m131.8 450.9 2.4-1.1 1.6-.1 1.6-1.6 2.9-1.6 3.3-2 1-1.7h2.7l.4-5.2-1.4-2.5.6-4.4-.6-2.6 1.6-1.6 1.9-2.1-1.9-2.1-1.6.1-1.9-1.8-1.9 2.1-3-.4-1.1-2.8-3.1-.9-2.4.2-3.4 2.4-2.7 2.8-2.3.7-.6 1.8 1 1.3-.4 2.4 1.8 1.8-.5 2.7h-1.9l-1.9 1.6 1.5 1.4-.9 2.6 2 2 3.2 1.3 1.1 2.1 1.9 1.9 1 3.3zm31.1-34.6 1.8 1.9h3.1l.8 2.3 1.6 1.6v3.2l2.1 2.1.8 2.7 2.7.8 1.3-2.1h4l.8-.9 2.8-.2-.4 2.1 1.2 1.2h1.7l1 2-1.7 2.4.8 1.8-1.4 1.4-.4 2.4-4.3.6-1.6-1.7-2.7 1.9-2.3-.3-2.2-2.2-2.1-2H167l-1 .9-3.4-3V432l-2.6-2.7h-2l-3-1.2-1.5-1.5-1.8.6-.3-2.1 1.9-1.3 1.5-1.5V421h1.9l2.6-2.6 2-.5 1.6-1.6z"/><path fill="#DDD" stroke="#FFF" d="m149.8 424.4 1.6.7.3 2.1 1.8-.6 1.5 1.5 3 1.2h2l2.6 2.7v3.2l3.4 3 1-.9h3.3l4.3 4.2 2.3.3 1.6 2.4v4.2l-1.6 1.6v2.3l1.3 1.3-.7 1.8-1.2.6-1.6 2.9-2 2.9-1.9-2.4-2.5.7h-2.1l-3.5-1.8-3.8-1.6-2.3-1.6-.8-2.9-3.5.1-2.6-2.3-1.8-.7-1.5-1.5-.3-2-2.5-1.3 1-1.7h2.7l.4-5.2-1.4-2.5.6-4.4-.6-2.6 3.5-3.7z"/><path fill="#DDD" stroke="#FFF" d="m172.7 461.8 1.3 2.6 2.1 2.2h5.8l2 2 1.6 2.9v3l3.4 1 .9 4.5 3.1 3.1-.6 3.6 2.4 2.4 1.1 1.8-.1 1.9-4.1-.8-2.1 2.1-3.8 1.4-3.4-1.9h-3.5l-1.6 2.5h-7.4l-.8 1.9-2.2 2.1-.3 3.2-4.1-.8-2.4-2.4v-3.3l1.1-3.3-1.8-1.7h-2.8l-.1-3.4-2.1-2-.4-2.5h-2.4l-1.6-1.6-.7-3.3-2.3-.9-1.3 1.2-2.2-2.1 3.1-2.9-.5-4.6-4-3.8-3.3.1v-2l-2.2-1.2-3.8-.4-1-4 .2-2.9 1.3-1.2-1.4-3.4 2.4-1.1 1.6-.1 1.6-1.6 2.9-1.6 3.3-2 2.5 1.3.3 2 1.5 1.5 1.8.7 2.6 2.3 3.5-.1.8 2.9 2.3 1.6 3.8 1.6 3.5 1.8h2.1l2.5-.7 1.9 2.4z"/><path fill="#DDD" stroke="#FFF" d="m187.3 437.2 4.4 3v2.8l3.4-.8 2.5 1.1 2.6 2.6 2.4 2.1 2.6-1 1.3 1.4.9 3.9 2.4 2.4.9 2.1-2.3 3.5-3.1 1.5-1.5 1.4-2.5-3.4-3.5-1.4-1.6 1.6-3.1-3.4-2.1 2.2-2.9-.7-2.2 2.2v3.7l1.5 1.5-.5 2.6-3 .5-2-2h-5.8l-2.1-2.2-1.3-2.6 2-2.9 1.6-2.9 1.2-.6.7-1.8-1.3-1.3V450l1.6-1.6v-4.2l-1.6-2.4 2.7-1.9 1.6 1.7 4.3-.6.4-2.4 1.4-1.4z"/><path fill="#DDD" stroke="#FFF" d="m224.1 467.6-1.2-2.7.8-2.2-4.1-3.5h-2.7l-1.9 1.9-4.3-4.3-2.3 3.5-3.1 1.5-1.5 1.4-2.5-3.4-3.5-1.4-1.6 1.6-3.1-3.4-2.1 2.2-2.9-.7-2.2 2.2v3.7l1.5 1.5-.5 2.6-3 .5 1.6 2.9v3l3.4 1 .9 4.5 3.1 3.1-.6 3.6 2.4 2.4 1.1 1.8h5.9l1.7-3.5 3.2-2.3 1.9.5 1-2.2 4.5-.8 2.3-5.3 3.8-2.1 2.9-2.9 1.1-4.7zm84.5 11.9 4.4-2.9 2.6 1.1h2.1l2.5 1.1 1.8-.7 2.3 3.9 3.9-3h3.6l1.3 1.7-1.9 3.5 2.9 4.1 2 .7v3.7l2.6.5 1.9 1.9h2.9l1 2.2 2.3.3-.6 3.1 6.6 4.1.5 5-2 2.8h-4.1l-3.7 1-3-1.6-3.7.6h-4.5l-4.3-2.2h-1.7l-2 1.9-3.3.7-3.2-1.7H315l-3.8-1.2-5.7.2.9-2.4 2.4-2.5-1.3-3.3h-3.3l-.5-1.5-2.1-.1-1.9-1.9.6-2.3h2.2l1.6-1.6-1-3.2 1.7-1.6h2.8l1.6-2.5-.5-4.2-.1-3.7zm-22.1-10.3-2.1 2.2-2-2.9H280l-3.9-2.8-2.1-3-1.9.8-2.1-.7-1.3-4.5-2.8-.5-1.4-3.1h-3.4l-3.5-2.7v-2l-2-.8-1.8 1.8-6.5 1.8-1 1.1 1.4 2.2v2.2l-3.5 2.6h-2.5l-1.9.9-1-1-1.8.9.6 2.3v1.4l1.1 1.2-1.3 1.3-2.1 2.1h-1.9l-.6 1.6-1.2 1.9-2 .8.8 1.5-.1 4.3 1.2 1.3-.9 4.6 1.9 1.2 2.2 2.2 1.4 3.7v3.6l1.1 2.3-.9 2.3v3.2l-.7 1.6 1.9 1.1 1.8-1.7h2.8l1 1.8-1 2.5-2.7 1.1.6 1.3 1.8.4-.5 3.3-1.1 1.1.6 2.5h1.6l.3 1.5 2 2 2-1 1.5-1.5 1.7.9.7 1.7 1.7 1.3 2.2.6 2.1-1.7 1.4-3.3 1-1.7 2.6-1.2.5-2.5 2.2-4.1h1.8v-2.9l2.2-2.9v-1.9l3.4-3.4 2.6-.9v-1.2l2.8-.2 1.2 1.6h1.9v-3.2l-1.1-3.7-4.1-1.3-1.8 1.2-4.1-.4-2.1-3.4-.5-4.5-1.6-1.6-.7-3.2 3.6-2.7 2.5.8 2.8 1.3 1.8 1.9v2.3l3.5 1.2 2.2-2.2 3.8-.9v-2l2-3.7.8-2.6-.7-2.8zM166.6 350v-3.3l.9-2.8-2.4-.8-2.7.6-3.5-1.7 1.2-1.2.5-2.4-2.2-3.5-2.4-.8 1.8-3.6 1.8-1.8 3.2.5 1-1.5 2.1-.6 2.2-2.7.9-2.3 1.5-2.8 3.8-2.1 2.5-3.6 1.8 1 3.1-1.6 2.7-1 2.8.5 2.4 1.1 2.7-.6 2.2 1.4.2 1.5 2.3 2.6-2.5 5 .3 1.6-1.3 1.3.9 4.6 1.9 1.2v2.1l2.6 1.3.7 1.7 1.1.7 1.5 1.5h1.7l1.4 1.4.6 1.9 3.4.2 2.5.6 1.1 1.1 2.1.6.8 2.1 2 1.9 1.3 1v1.7l1.4.5h2.8v-1.1l1.4.4h1.8v2.2l1.1 1.1h1v1.4l2 1 1.2 1.2 1.8-1.7.5-1.5 1.8.8 1.3 2.2-1.4 1.4 1.9 1.1v1h1.4l1.8.7-.8.8 2.1 2.7-3.7 3.6-2.2 2.3-3.2-1.4-1.7 1.6 3.6 3.8-2.3 1.2v3l-1.1 1.1-3.9-3.4-2 3.2-3.7-.9-1.5 1.6-2.3-3.3-3.3-1.9-2.8-1.3-1.2-3.3-3.3-3.2-4.3-.8-2.2-4.7-3.4 1.6-3.6-1.6-4.1 1-3.7 1.6-3.9-3.9v-6.6l-3.1-3.2-1.7 1.7-4.1-2.9-1.8-1.8-3 .3-2.1.4z"/><path fill="#DDD" stroke="#FFF" d="m163.4 351.4 3.2-1.4 2.1-.4 3-.3 1.8 1.8 4.1 2.9 1.7-1.7 3.1 3.2v6.6l3.9 3.9v2.9l-4.3.2-1.1 2.3h-2.2l-3.2 3.4h-2l-.9 2.3-3.4-.7-1.6-1.6h-3.8l-2.3 2.3h-2.8l-1.4 1.4-1.9-2-1.9-1.4-.3-1.7-.5-2 1.2-1.4 1.9-1.9 3.3-2-1.2-2.7v-1.6l1.8-1.9-.8-2.9 1-2.1h2.4l1.1-3.5z"/><path fill="#DDD" stroke="#FFF" d="m229.6 383.7 2-2.3-3.9-3.4-2 3.2-3.7-.9-1.5 1.6-2.3-3.3-6.1-3.2-1.2-3.3-3.3-3.2-4.3-.8-2.2-4.7-3.4 1.6-3.6-1.6-4.1 1-3.7 1.6v2.9l-4.3.2-1.1 2.3h-2.2l-3.2 3.4h-2l-.9 2.3 2.2 2.2h2.9l1.5 1.5 2.3-2.4 1.3.3 1.1 3.1 3.6 2.3h2.2v3.8l3.2 1.6v3.1l4 .9 5.1-1.3 1.9-1.9h2.9l1.2 2.8 1.8 1.8h3.1l1.2 1.1 2.6-2.6 4-1.4 1.7 1.7 2-2.1h4.6l.6-7.9z"/><path fill="#DDD" stroke="#FFF" d="m161.5 377.1 2.3-2.3h3.8l1.6 1.6 3.4.7 2.2 2.2h2.9l1.5 1.5 2.3-2.4 1.3.3 1.1 3.1 3.6 2.3h2.2v3.8l3.2 1.6v3.1h-3.3l-1.4 3.4h-3.3l-2.4-2.4-1.9 1.9-.8 3.5-2.2 2.2-4.3.5-3.6 1.1 1.4-5.2 1.8-4.4-4.4-4.4-2.5-2.5-4.2-1.4v-2.4l1.4-2.6-1.7-2.8z"/><path fill="#DDD" stroke="#FFF" d="m157.3 378.5 1.4-1.4h2.8l1.7 2.8-1.4 2.6v2.4l4.2 1.4 2.5 2.5 4.4 4.4-1.8 4.4-1.4 5.2-3.4.6-2 2.1-2.8.6-1.9 1.9-2.1-3.5-1.8-.5-.4-2.2-2.5-.8.6-2-1.6-1.3v-2.4l1.1-.5.5-1.7.2-3.1-1.3-1.3-1.6-.7-.8-1.6v-2.1l-1.5-.7-.8-2.2 1.8-1.4-.1-2.2 1.4-1.4.6-2.1 1.9-.9.3 1.7 1.9 1.4 1.9 2z"/><path fill="#DDD" stroke="#FFF" d="M159.6 411v-3l1.9-1.9 2.8-.6 2-2.1 3.4-.6 3.6-1.1 4.3-.5 2.2-2.2.8-3.5 1.9-1.9 2.4 2.4h3.3l1.4-3.4h3.3l4 .9 5.1-1.3 1.9-1.9h2.9l1.2 2.8 1.8 1.8h3.1l1.2 1.1 3.5 2.6 4.3 4.3-2.6 2.7-2 2-3.6-2.1-2.8.6-2 1.9-2.4 3.5-4.5-2.8-2.1 2.1-3.5-.1.3 3.7-1.7 1.7 1.6 3-4.8 2.8v4l-3.1 2.7-1.5 2.4h-1.7l-1.2-1.2.4-2.1-2.8.2-.8.9h-4l-1.3 2.1-2.7-.8-.8-2.7-2.1-2.1v-3.2l-1.6-1.6-.8-2.3h-3.1l-1.8-1.9-.6-1.5v-1.6l-2.7-2.2z"/><path fill="#DDD" stroke="#FFF" d="m188.2 433-1-2 1.5-2.4 3.1-2.7v-4l4.8-2.8 2.9 1.4h6.1l.5 3.1 1.9 1.9-.9 2.6 1.9 3.5-4.1 1.1-3.8 2.2v4.1l-3.2 1.1-2.9-1.1-3.3 1.2-4.4-3-.8-1.8 1.7-2.4zm18.3-21.5 2.4-3.5 2-1.9 2.8-.6 3.6 2.1 4.6-4.7-4.3-4.3-3.5-2.6 2.6-2.6 4-1.4 1.7 1.7 2-2.1h4.6l.6-7.9 2-2.3 1.1-1.1v-3l2.3-1.2-3.6-3.8 1.7-1.6 3.2 1.4 5.9-5.9 1.8-1.6 1.3.4 3.1 3.8-.6 1.8 1.5.8.3 2.5-2 2.1v3.3l-3.2.7v2.2l-2.2 2.2v2.5l1.7 1.8v2.5l.8 2.6-1.1 2.3 1.2 1.2 1.9-2.3 1.2-3.4 2.9-.7 3.1 1.4 1.9 1.9 2.6-2.5 1.4 1.4.8 1.9 2.5-.3 1.5-1.6h2.7l1.6 1.6 3 1.4 2.2 2.3 1.9 1.5-.5 2.9-2.8 2.4-2.6 1-3 3v2.7l1.7 1.7-.9 2.7v2.8l-3.6 2.3h-3l-.1-3.4-3.4.2-3.9-3.8-3.1 2.2-1.9 3.2-.9 2.9-2.1 2.1h-2.8l-1.7-1.6-3 3.2v4.8l-2.8 2.8-2 2-1.5 3.8-2.8-3.2-.9-4.1v-2.6l-.8-2.5v-5.3l-2.8-1.6-1.2-3.9-3.6-.7-2.8-1.7-1.2 2.1-1.9-1.9-3 1.7-2.7-1.7-1.9-2.9z"/><path fill="#DDD" stroke="#FFF" d="m199.9 410.8 2.1-2.1 4.5 2.8 1.9 2.9 2.7 1.7 3-1.7 1.9 1.9 1.2-2.1 2.8 1.7 3.6.7 1.2 3.9 2.8 1.6v5.3l.8 2.5-2.9 1.6-2-2h-3.7l-1.5-1.6-3.9 2.3-5.4 1.4-1.9-3.5.9-2.6-1.9-1.9-.5-3.1h-6.1l-2.9-1.4-1.6-3 1.7-1.7-.3-3.7 3.5.1z"/><path fill="#DDD" stroke="#FFF" d="m246.3 453.9 1.4 2.2v2.2l-3.5 2.6h-2.5l-1.9.9-1-1-1.8.9.6 2.3v1.4l1.1 1.2-3.4 3.4h-1.9l-1.8 3.5-2 .8-1.9-1.9 1.9-2-2.8-2.8h-2.7l-1.2-2.7.8-2.2-4.1-3.5h-2.7l-1.9 1.9-4.3-4.3-.9-2.1-2.4-2.4-.9-3.9-1.3-1.4-2.6 1-5-4.7-2.5-1.1-3.4.8v-2.8l3.3-1.2 2.9 1.1 3.2-1.1v-4.1l3.8-2.2 4.1-1.1 5.4-1.4 3.9-2.3 1.5 1.6h3.7l2 2 2.9-1.6v2.6l.9 4.1 2.8 3.2 3.4.4 1.6 2.2 2.9 1.3 1.1 1.7h2l.3 3.1 2.3 1.7-2.2 1.3.2 1.4 2.6 1z"/><path fill="#DDD" stroke="#FFF" d="m233.6 436 4.8-4.8v-4.8l3-3.2 1.7 1.6h2.8l2.1-2.1.9-2.9 1.9-3.2 3.1-2.2 3.9 3.8 3.4-.2.1 3.4h3l-.8 3.7-.1 4.2-2.1 3.7-.5 4.1-1.9 4.2-5.5 2.8v1.9l2.2 3.2-1.8 1.8-6.5 1.8-1 1.1-2.6-1-.2-1.4 2.2-1.3-2.3-1.7-.3-3.1h-2l-1.1-1.7-2.9-1.3-1.6-2.2-3.4-.4 1.5-3.8zm159.1-114.5h-1.9l-3.4 2.8-2.9.2-1.3 3.1-4.4-.7-1.2 1.9-1.9 1.9-1.9 1.1-3.8 1.3-3.2.8-3.7-1.9-2 .4-2.3-1.9-4.4-1.8-4.5-2.9-3.3-1.3-5.4-2.1-2.7-2.7-3.2-.3-5.3-3.4-2.6-2.7-4.1-1.8-4-3.4-3.6.4-2.8 1.9-17.3.1-1.8 1.8-1 2.5-1.1 1.2v1.1l-1.2 1.2-1.5 1.5.7 1.4 1.9 1.9.8 1.6-1.1 2.3.5 2.2 1.3 1.3-1.5 2.5-1.5 1.5-1-1h-1.5l-2.1-1.7-2.2-.5-1.7-1.1-2.3.8-1.9 1-.5-2.5-2.6-2.7-2.5-1.4-2.8-.6-1.4-1.4-2-.7-2.3-1.7h-2.1l.4 2.2v2l1.7 2.5 1.8 1.8-.7 2.3v2.4l-2.2 1.4-.7 2.6 1.3 1.2.3 2.6-.4 1.5-2.4-.5-1.9.5-.6 1.6-.8.8.3 1.8-2 1 .3 2.9 1.7.8 1.6.5 1.4 1.5 1.5-2.2 1.1.4.9-2.1 2.2-.5h1.5l1.1 1.1 1.7-.8.1 2.2 1.4 1.5-2 2-1.5.7-2.2 2.2-2.6 1.6-.2 1.5-2 1.2-1.3 1.3 1.8 1.9-1.4 2.4-1.6 1.2-1.5 1.7-1.6-.3-.4-1.4h-2.6l-1.4-.4.1 1.2-2.1.6.3 2.5-2 2.1v3.3l-3.2.7v2.2l-2.2 2.2v2.5l1.7 1.8v2.5l.8 2.6-1.1 2.3 1.2 1.2 1.9-2.3 1.2-3.4 2.9-.7 3.1 1.4 1.9 1.9 2.6-2.5 1.4 1.4.8 1.9 2.5-.3 1.5-1.6h2.7l2.6-1v-2l-1.7-1.7 1.6-3 3.3 1.8 1.2-1.1 1.2 1.1 1.6-1.6 2.2.8.8 1.3-.3 2.2 1.7 2.1 2.1-.8 3.7 1.7 2.3 2.3 2.7-1.3 3 1.1 1.6-1.7 1.7.6 1.2 1.2 1.7-.6 1-2.1h1.8l3.8 2.6 3.8 2 4.2 1.6 5.8.9.9-2.4 1.5-1.5.6-3 4.1-4.1v-2.3l1.4-2.6-.6-2.9 2.2-4.2 3.4-2.1.4-3 4-2.5-.7-3.7 1.5-2.8 3.5-3.5 2.5-2.5 2.2.7v2.6l2.8-.3 3.2-3.2 3.1-1.6 1.7-2 3.2-.5 4.4.2v-3.7l5.3-3 5.3-1.1h5.7l1.2-3.7h3.1l3-3 4-2-2.5-2.6 3-1.2v-2.2l-3.3-1.7.5-3.1 1.3-.6.8-1.9-1.9-1z"/><path fill="#DDD" stroke="#FFF" d="m267.9 419.1-3.6 2.3-.8 3.7-.1 4.2-2.1 3.7-.5 4.1-1.9 4.2-5.5 2.8v1.9l2.2 3.2 2 .8v2l3.5 2.7h3.4l1.4 3.1 2.8.5 1.3 4.5 2.1.7 1.9-.8 2.2-2.4 1.3-1.3v-2.9l1.1-2.2 1 1h3.3l2.7-1.4.8-3.1 1.7-2.9h2.3l2 3 1.2-1.3 1.8-1.8-1.3-1.3-.1-1.6 3-2 2.9.6 2-1.7 2.1-2-1.8-1.9v-1.2l1.7-1.7 1.1-3.7-2.1-3.4v-4.3l2.7-2.3h2.9l2.3-2.3 2.5-3.7 3.3-3 1.9-4.7v-3.3l3.4-1.8v-2.6l-5.8-.9-4.2-1.6-3.8-2-3.8-2.6h-1.8l-1 2.1-1.7.6-1.2-1.2-1.7-.6-1.6 1.7-3-1.1-2.7 1.3-2.3-2.3-3.7-1.7-2.1.8-1.7-2.1.3-2.2-.8-1.3-2.2-.8-1.6 1.6-1.2-1.1-1.2 1.1-3.3-1.8-1.6 3 1.7 1.7v2l-2.6 1 1.6 1.6 3 1.4 2.2 2.3 1.9 1.5-.5 2.9-2.8 2.4-2.6 1-3 3v2.7l1.7 1.7-.9 2.7v2.8zm417.6 173-5.8-.8-2.4-1.5-7.6 1.1h-4.8l-3.9 3.9-4.3 1-4.2 1.2-6-.5-4.1-1.8-2.6-2.6-2.4-5.1-3.1-3-4.3-1.7h-4.2l-4.7 1.2-3.3-3.2h-6.5l-3.8-2.8-1.9 1.9-.2-3.2-1.6-1.6-.6-2.8 1.7-1.8v-2.9l2-2 4.4-4.4 1.1-1.1 1.5-1.5 2.4 1.4-.5 2.2 3.1 1.5 1.9 1.8 4.1 1.2 1.9 1.9 2.1 1.1 2.4 2.4 5.3-1.1 2 2.1 2.5 2.1h2.7v2.4l1.8 3h4.8l.9 3 3.7-2.1h2.8v-4.9l3.8-3.9 4.5-5.3 2.3-5.8 5.9-5.9 6.7-8.1 1-11.9 2.4-7.8-3.6-1.2-1.9-9-1.6-7.3 1.2-2.4 1.8-1.8-2.9-2-2.8-.8-1-4.5 5.3-3.9h2.6v-3.4l2.5-1.1 3.6 1.2 3.8-1.3v-3.3l2.6-1.9 1.4 1.5h4.2l2.5-1.7 1.6 1.6 5.2 1 2.1-2.1 2.3 1.2 3.3-3.3h2.5v-6.5l3-1.5 1.9-3.9 3.1.7 1.5 1.5-3.6 3.4v4.5l3.1 1.6 1.3 4 2 2.4 1.2 4.3 2.9 3.1 2.6-1 3.7 1.8 2.6 2.6 1 2.6-1.5 5.1-3.8 1.1-3.1 3.2-2.4 3.8-1.7 3.9-2.8 2.8-2.1 4.1 1.3 4.1 2.6.8v2l2 2-1.1 4.1-6.4 6.2-3.7 1.7-2.2 2.2-2.9 1.1-.7 4.8-2.3 2.2-2.5 1-1.6 5.7h-2.6l-3.3-.5-4.3 4.3-2.3 1.2-1.9-.8h-1.8l-1.9 1.9v3.1l1.4 1.6-2.2.9v5.9l3-.4 2 2-5.5 5.4.7 3.1h-6.3z"/><path fill="#DDD" stroke="#FFF" d="m789.5 537.3 1-7.2 1.3-2.8-1.3-5.3-2.3-2.4-2.1-2.1-2.6 2.1-1.8-2.3 1.3-3.3 1.8-5.5 2.6-2.6 5.3-3.1-2.4-4.2-1.1-2.1h-2.9l-.8-3.6-1.4-2.2 2.5-1.5V488h-1.3l-2.3-2.4-1.8-.2.4-4.3-1.1-1.9-1.2-3.2-2.6-1.4-1.9 2.7-2-.8-.2-2.8-1.3-1.3-2-.6-2 2.1-1 2.5-3.5-.9-1-2.1 2-2.5-1.2-1.9-2.3.7-2.9-.7-2-2.1v-2l-2.7-.7v-2.9l-2.5-.9-2.6-3.4-3.7-1.3-.8-3.8-1.7-1.8-2 1.6h-2.1l-1.5-1.6-2.7-.2-2.9 2.9 1.2 1.2-1.3 2.9 1.5 1.5-1.3 3.4 4.8 4.8 2.7-1.1v2.1l1.2 1.1-.6 3.3-2.6 1.6-1.5 2.9-3.8-1-2.5 1.4-3-.3v4.5l3.1 1.6 1.3 4 2 2.4 1.2 4.3 2.9 3.1 2.6-1 3.7 1.8 2.6 2.6 1 2.6-1.5 5.1-3.8 1.1-3.1 3.2-2.4 3.8-1.7 3.9-2.8 2.8-2.1 4.1 1.3 4.1 2.6.8v2l2 2-1.1 4.1-3.9 3.7-2.5 2.5-3.7 1.7-2.2 2.2-2.9 1.1-.7 4.8-2.3 2.2-2.5 1-.8 3.2-.8 2.5h-2.6l-3.3-.5-4.3 4.3-2.3 1.2-1.9-.8h-1.8l-1.9 1.9v3.1l1.4 1.6-2.2.9v5.9l3-.4 2 2-5.5 5.4.7 3.1 2.4 2.4 1.3 2.5 4.5 1.5 5-.7h6.8l4.9-1.5h5.3l2.1-2.1 4.1-4.1 5.3-2.5 3.8-2.6 3-3 1.4-4.9 6-6 4.1-1.8 3.2 1.2 3.5 1.8 4.7-2.7 3.3-2 4.5.9 6.2.5 5.5-2 3.2-3.3 2.3-5.2 3.5-1v-4.7l-1.5-1.5-2.5-4.8 1.8-4.7v-4.5z"/><g fill="#DDD" stroke="#FFF"><path d="m737.3 443.6-1.4-3.8-2.1-.2v-2.4l-2.2-2.4-1.8-1.8h-2.7v2.5l-2.3 2.4-3.7-.6v-2.4l-1.5-1.3v-3l-3.3-.5-3.7-1.7-3.6.4-3.5-.5-2 2.4-1 3.2-2.3 2.4.9 3.2-1.2 3.8-3.1 3.1v5.8l-4.4 3v3.5l-1.9-2.6v-2.9l-2.2-2.2-2.1.9-.5 2.7-5.5 2.1h-2.6l-1 3.1-1.7 2.5-3.6.3-4-4-.4-8.4.5-5v-4.6l.6-4.2v-4.1l-2.9-1.2-2.1-.7-.3-2-.9-2.3-1.9-1.9V422l1.3-1.3.3-3.1-1.8-1.8h-2.4l-2.6-1.3v-2.4l1-1-1.1-1.1-.9-3.7-2.1-3.7-2.5-1.8-2.8.8-2.7.2v-3.2l2.2-.6v-2.2l-2.3-2.3-.9 1.9-1.4 1.4-2-.5-2.2 2.2-2.2.9-1.4 3v3.1l1.2 3.2-1 2.8v2.3l2.9 2.9 1.8 1.8-.8 2.5-1.2 2 2.2 2.1-2.1 2-1.5 1.1v4.4l-1.7 1.1-.7 3-2.9 1.2.7 4-1.2 1.2-.5 3.7.7 3.3 1.7.8 2.8 2.8 1.1-1.2 2.7 1v3l.9 2.5-1.8-.3-1.3 2.3-1 1.9.6 1.6h2.7l1.2 2.6.9 2.4-1.5 1.5-1.5 2.5v2.2l-.9 1.9h-2.4l-2.1-2.1h-2.8l-1.1-1.9-2.6-1.1-.6-1.8-2.1-.5-2.9 1.8-.8 3.3 1.5 3.5-2.2 3.3-3.7 3.6-2.4 3.5-.9 3.6-1.3 3.1 2.4 2.3-2.3 1.6-3.2-2.2-1.6-3.8-2.8-2.7-2.6 1.3-1.1 3.6-4.2 1.5-3.3-.5-3.5.8-.1 5-1.9 1.9v4.7l2.3 2.4 1.6 3.8v2.1l-2.6 1.4-1.2 3H583l-.6 3.1-1.2 2.7 1.8 2.6.1 2.7-1.3 1v3.8l.7 2.2-1.2 2.1.4 2.7-4.8.3v2l-2.1-.3-.8 2 3.1 2 4.8 4.8 2.2 1.3h3l2.5 1.9 3.8.5 3.1 3 2.1 1h3.7l1.5-1.5 3.1 3.1 7-7 2.7 1.7-.8 1.9 3.1 1.5 1.9 1.8 4.1 1.2 1.9 1.9 2.1 1.1 2.4 2.4 5.3-1.1 4.5 4.2h2.7v2.4l1.8 3h4.8l.9 3 3.7-2.1h2.8v-4.9l3.8-3.9 4.5-5.3 2.3-5.8 5.9-5.9 6.7-8.1 1-11.9 2.4-7.8-3.6-1.2-3.5-16.3 1.2-2.4 1.8-1.8-2.9-2-2.8-.8-1-4.5 5.3-3.9h2.6v-3.4l2.5-1.1 3.6 1.2 3.8-1.3v-3.3l2.6-1.9 1.4 1.5h4.2l2.5-1.7 1.6 1.6 5.2 1 2.1-2.1 2.3 1.2 3.3-3.3h2.5v-6.5l3-1.5 1.9-3.9 3.1.7 1.5 1.5-3.6 3.4 3 .3 2.5-1.4 3.8 1 1.5-2.9 2.6-1.6.6-3.3-1.2-1.1v-2.1l-2.7 1.1-4.8-4.8 1.3-3.4-1.5-1.5 1.3-2.9-1.2-1.2 2.9-2.9 2.7.2 1.5 1.6h2.1l2-1.6.6-1.8-4.7-4.7z"/><path d="m737.3 443.6-1.4-3.8-2.1-.2v-2.4l-2.2-2.4-1.8-1.8h-2.7v2.5l-2.3 2.4-3.7-.6v-2.4l-1.5-1.3v-3l-3.3-.5-3.7-1.7-3.6.4-3.5-.5-2 2.4-1 3.2-2.3 2.4.9 3.2-1.2 3.8-3.1 3.1v5.8l-4.4 3v3.5l-1.9-2.6v-2.9l-2.2-2.2-2.1.9-.5 2.7-5.5 2.1h-2.6l-1 3.1-1.7 2.5-3.6.3-4-4-.4-8.4.5-5v-4.6l.6-4.2v-4.1l-2.9-1.2-2.1-.7-.3-2-.9-2.3-1.9-1.9V422l1.3-1.3.3-3.1-1.8-1.8h-2.4l-2.6-1.3v-2.4l1-1-1.1-1.1-.9-3.7-2.1-3.7-2.5-1.8-2.8.8-2.7.2v-3.2l2.2-.6v-2.2l-2.3-2.3-.9 1.9-1.4 1.4-2-.5-2.2 2.2-2.2.9-1.4 3v3.1l1.2 3.2-1 2.8v2.3l2.9 2.9 1.8 1.8-.8 2.5-1.2 2 2.2 2.1-2.1 2-1.5 1.1v4.4l-1.7 1.1-.7 3-2.9 1.2.7 4-1.2 1.2-.5 3.7.7 3.3 1.7.8 2.8 2.8 1.1-1.2 2.7 1v3l.9 2.5-1.8-.3-1.3 2.3-1 1.9.6 1.6h2.7l1.2 2.6.9 2.4-1.5 1.5-1.5 2.5v2.2l-.9 1.9h-2.4l-2.1-2.1h-2.8l-1.1-1.9-2.6-1.1-.6-1.8-2.1-.5-2.9 1.8-.8 3.3 1.5 3.5-2.2 3.3-3.7 3.6-2.4 3.5-.9 3.6-1.3 3.1 2.4 2.3-2.3 1.6-3.2-2.2-1.6-3.8-2.8-2.7-2.6 1.3-1.1 3.6-4.2 1.5-3.3-.5-3.5.8-.1 5-1.9 1.9v4.7l2.3 2.4 1.6 3.8v2.1l-2.6 1.4-1.2 3H583l-.6 3.1-1.2 2.7 1.8 2.6.1 2.7-1.3 1v3.8l.7 2.2-1.2 2.1.4 2.7-4.8.3v2l-2.1-.3-.8 2 3.1 2 4.8 4.8 2.2 1.3h3l2.5 1.9 3.8.5 3.1 3 2.1 1h3.7l1.5-1.5 3.1 3.1 7-7 2.7 1.7-.8 1.9 3.1 1.5 1.9 1.8 4.1 1.2 1.9 1.9 2.1 1.1 2.4 2.4 5.3-1.1 4.5 4.2h2.7v2.4l1.8 3h4.8l.9 3 3.7-2.1h2.8v-4.9l3.8-3.9 4.5-5.3 2.3-5.8 5.9-5.9 6.7-8.1 1-11.9 2.4-7.8-3.6-1.2-3.5-16.3 1.2-2.4 1.8-1.8-2.9-2-2.8-.8-1-4.5 5.3-3.9h2.6v-3.4l2.5-1.1 3.6 1.2 3.8-1.3v-3.3l2.6-1.9 1.4 1.5h4.2l2.5-1.7 1.6 1.6 5.2 1 2.1-2.1 2.3 1.2 3.3-3.3h2.5v-6.5l3-1.5 1.9-3.9 3.1.7 1.5 1.5-3.6 3.4 3 .3 2.5-1.4 3.8 1 1.5-2.9 2.6-1.6.6-3.3-1.2-1.1v-2.1l-2.7 1.1-4.8-4.8 1.3-3.4-1.5-1.5 1.3-2.9-1.2-1.2 2.9-2.9 2.7.2 1.5 1.6h2.1l2-1.6.6-1.8-4.7-4.7z"/></g><path fill="#DDD" stroke="#FFF" d="m366 515.1-1.5-3h-4.2l-3.3-2-3.7-.3-.5-5-6.6-4.1.6-3.1-2.3-.3-1-2.2h-2.9l-1.9-1.9-2.6-.5V489l-2-.7-2.9-4.1 1.9-3.5 2.2-1.6-.9-3 1.3-1.3-.7-3.6 2.9-2.9 2.5.6 2-2 2.2.9 3.9-1.9v-2.8l-.8-2.2 1-3.2 2.3 1.8h3.5l2.6-.8v-2.2l1.3-1.3 4.6 1.3 1.9-1.9h5l1.4-1.4 2.7-1 2.8-1 1.3-1.3-.2-2.7h1.9l2.2 1.9 2 1 2.3 2.3h2.5l3.2.8 2.6 2.7 1.9 3.3 2.3 3.7v3l3.3.5v2.8l1.7 1.7 2.8 1 1.7 1.6h3l2.1 1.9h2.7l-1.5 2.1-2.7 2.7-3.3 1.5h-4l-2.5-.7-2.8-1.5-1.8 1.6h-2.7l-2.2-1.4-1.8-.8-2.9-.9-2.3-.8v-2l1.7-1.6-2.7-2.6-2.5 1.7-1.5 2.5-2 2-.2 2.7 1.1 3.3-2.6 1.3v1.9l2.2 1.1 1.6 1.6.8 1.9 2.5 1.4v2.2l-1.2 1.2-3.2.6-1.8 1.8-2.4 2.4v2.9l-.6 1.7-1.8 1.8-1.4.2v2.3l-1.7 1.7-.9 1.9v2h-3z"/><path fill="#DDD" stroke="#FFF" d="M331.8 479h-3.6l-3.9 3-2.3-3.9-1.8.7-2.5-1.1h-2.1l-2.6-1.1-4.4 2.9-1.7-1.8-1.8-1.8-2.4-1.3-2.1 2-2.3-2.2-2.2-.3-.6-1.2-3-1-.9-1.7-2.8-1.9-2.3.9-2.1 2.2-2-2.9H280l-3.9-2.8-2.1-3 2.2-2.4 1.3-1.3v-2.9l1.1-2.2 1 1h3.3l2.7-1.4.8-3.1 1.7-2.9h2.3l2 3 1.2-1.3 1.8-1.8-1.3-1.3-.1-1.6 3-2 2.9.6 2-1.7 2.1-2-1.8-1.9v-1.2l1.7-1.7 1.1-3.7-2.1-3.4v-4.3l2.7-2.3h2.9l2.3-2.3 2.5-3.7 3.3-3 1.9-4.7v-3.3l3.4-1.8v-2.6l.9-2.4 1.5-1.5 2.3 1.4v2.1l1.4 1.4 1.5 1 2.2 2.2 3.9 4 2.5 4.5 2 2v4.5l-1.7 2.2.9 5.2-1.1 4.2 2.2 2.1v3.4l-2 1.9.7 3.9 2.8 1.4 2 2.4.1 2.7h1.9l2 1.9-1.1 2v3.8l1.9 1.9-1 3.2.8 2.2v2.8l-3.9 1.9-2.2-.9-2 2-2.5-.6-2.9 2.9.7 3.6-1.3 1.3.9 3-2.2 1.6-1.3-1.7z"/><path fill="#DDD" stroke="#FFF" d="m362.8 352.1-.3 5.5.7 4.5-1.3 4.1-3.1 3.1 1.6 1.6 2.8 2.8 3.3 3.3 4.5-1 3.5 1.5 3.5-1.5 3.8 2 3.8 3.3-2.9 2.9 2.5 2.8 4.5.8 2.3-2.3 2.5 2.5 1.8-1.8h4.5l4 4 .9 4.5v2.9l3.8 3.8-.8 3.3 1.2 3.3 5.8-.7h2.8l2.5 4h2.8l3.3 3.5 2.8-.7 4.1 1.1 2.7 2.7 1.6-1.6 4.5 1.8-1.2 3.2 3.5 1.8 2.7 2.7h12l1.3-2.3 3-1.7 3.5-2.3 1.3 3.5 3.4 4.4 1.6-1.6 4.8 1.5 2.5 4.2 2.5-.8h2.3l3.5 4.3.1 5.1 4.2 2.8 4.7 2.1-2.5 4.1-6 2.6-3.8 3.8-6.2-4.5-6.6 2.8-1.2 4.1-4.4-2.3-3.2.8-3.8-3.8-4.2 1.6-5.3-.6-1.4-2.2h-5.7l-4-1.7-5.3.8-2 3.9-1.9 4.8.3 5.2-5.5 1.5-4.5 3.3-.5 3.5-4.7 2.8h-2.8l-2.1-1.9h-3l-1.6-1.6-2.8-.9-1.7-1.7v-2.9l-3.4-.5v-3l-2.3-3.6-1.9-3.4-2.6-2.6-3.3-.9h-2.5l-2.3-2.3-4.3-2.9h-1.9l.2 2.7-1.3 1.3-5.4 1.9-1.4 1.4h-5l-1.9 1.9-4.6-1.3-1.3 1.3v2.3l-2.6.8H351l-2.3-1.8-1.9-1.9V452l1-1.9-1.9-1.9H344l-.1-2.7-1.9-2.4-2.8-1.5-.7-3.8 2-2v-3.3l-2.2-2.2.9-3.4-.7-5.9 1.7-2.2v-4.5l-2-2-2.4-4.5-3.9-3.9-2.2-2.2-2.8-2.4V397l-2.3-1.5.6-2.9 4.1-4.1v-2.3l1.4-2.6-.6-2.9 2.3-4.3 3.4-2.1.4-3 4-2.5-.6-3.6 1.5-2.9 3.4-3.4 2.6-2.6 2.1.8v2.6l2.9-.4 3.1-3.1 3.1-1.6 1.8-2 2.7-.5z"/><g fill="#DDD" stroke="#FFF"><path d="m587.4 201.3-.6.9 1.4.9.6-1.1-1.4-.7zm-6.5-13.5-1.5.9 2.1 1.1 1.5 1 1.7-.4-.5-2-1.6.4-1.7-1zm-14.8-7.4v-2.1l.1-3.8-1-2.1-1.5.1-2.1 2.6.1 2.3-.9 1.5.6 4.1-1.8 1.8.1 4-.9 3.5-.7 3.5 1.3.8 2.9-2.3 1.7-1.1 3.8-1.9 3-.3 3.8-2.9 1.8-3.5-1.2-3-1.4-2.3-1.8.8-1.8-3.2-1.4-1.4-1.6 2-1.1 2.9zm-13.6-16.2-1.4 1.7-1.2 2.3-1.1-.5.8-2.9v-3l-3.3 1.1-2.4.6-2.7.9-1.1 2.3-.6 2-1.4 1.7.5 2-2.6 2 1.2 1.1 1.8-.6 1.5 2.1.2 2 1.4 1.7 3.5.3.5 2 2.4-1.5 1.2 2 3.3 1.2 3.2-1.5 1.5-2.1-1.2-2.4-2-2.7 1.5-1.1.6-2.6-.8-2.9.3-2.9-3.6-2.3zm-2.7 46.3-1.6 1.8-1.9.4 1.8 1.4 1.8-1.8-.1-1.8zm-25.3-.6-.8 1.2 1.1.9 1.4-2-1.7-.1zm-15.6 41.4-1.8.9.8 2 1.4-.6-.4-2.3zm-13-13.6-1.7 1.4 1 1.8 1.5-.3-.8-2.9zm-.6 19.8-.3 1.7h2.6l1.3 1.3.2-2.2-1.5-.3-2.3-.5zm-8.8-89.7-.9.9 1.1.6 1.6 1.2.5-1.5-2.3-1.2zm-9.2 105.4-1.1 1.4.7 1.8 1 1.4 1.5-1.7.6-1.9-1.3-1.4-1.4.4zm22-125-1.3.3-.8.8 1.2 1.3 1.7-.6 1-1-1.8-.8zm28.6-2.5-1.1 1.2.8.8 1 1 1.9-1.8v-1.3l-2.6.1zm12-1.6-.4 2.5-2.2 1-3.4 2.3v3.1l1.4 1.4-1.9 1.8-1.1 2.3 1.6 2.2.6 2.3 2.9 2.5 2.6-2.5h1.8l2.6-1.5 3.1-1-.9-3v-3.8l1.9-1.6-1.6-1.5-3.1-3.2-1.2-2.5-2.7-.8zm-7.4 20.8-2.1-.3.4 2.8v1.7l2.7.8 1.1 1.1 1.7-1.7 1-2.4-1.7-1.3-3.1-.7zm-33.4 64-.8.8 1.1.9 1.7-.5-2-1.2z"/><path d="m611.8 320.4.9 2.2 1.3 2.9 2.9 2 .3 5.5 2.9 5.3v2.2l.7 4.2.9 6.5-2.5.7-1.7 2.7-1.6 1.6.9 2.8.9-.9 3.1 1.3v2.7l1.1 1.1-1.1 1v2.9l2.9 1.6.9 4.6 3.4 3.4-1.1 3.2-2 3.1.8 2.5v2.2l-1 1v3.3l1.8.8h2.7l1.4-1.4h1.6l1.5 1.8 3-1.1 2.3 1 1.8-1.8 2.4.2.1 2-.9 1.9-1.4 1.4-2-.5-2.2 2.2-2.3.8-1.3 3v3.1l1.2 3.3-1 2.8v2.4l2.9 2.9 1.8 1.8-.8 2.4-1.2 2 2.1 2.1-2 2-1.5 1.1v4.4l-1.8 1.1-.7 3-2.9 1.2.8 4-1.3 1.3-.5 3.7.8 3.3 1.7.8 2.8 2.8 1.1-1.1 2.7 1v2.9l.9 2.5-1.8-.3-1.3 2.3-1 1.9.6 1.6h2.7l1.3 2.7.9 2.4-1.5 1.5-1.6 2.5v2.2l-.8 1.9h-2.5l-2-2h-2.8l-1.1-1.9-2.6-1.2-.6-1.8-2.2-.5-2.9 1.8-.7 3.3 1.5 3.4-2.3 3.3-3.6 3.6-2.5 3.5-.9 3.6-1.3 3.1 2.3 2.3-2.3 1.6-3.2-2.2-1.6-3.8-2.8-2.8-2.6 1.3-1.1 3.6-4.2 1.5-3.3-.6-3.5.9-.1 5-2 2v4.7l2.3 2.3 1.6 3.8v2.2l-2.6 1.3-1.2 3h-2l-.7 3.1-1.1 2.7 1.8 2.7.1 2.7-1.3.9v3.9l.7 2.2-1.1 2.1.4 2.7-4.8.3v2.1l-2.1-.4-.8 2.1 3.1 2 4.7 4.7 2.2 1.3-.9 2.1-1.8-.7-1.4 1.4-3.7-.2-3.2 3.2-4.4-.8-1.6 1.6-1 6-3.9 1v2.8l-2.5 2.5v4.3l-3.5 1-4.9 4.3-3.5 1.5h-2.6l-3.4-1.8H538l-3.9-1.4-2.9-2.9 1.2-1.7 1.5-3.7 3-1.3 2.7-2.7-.4-3.4 2.7-2.7 1-3.4-1-2.7v-3.2l-3.5-3.5-1.1-4-3.4-3.4 1.1-4.5-1-2-3.2 1.1-4.9-.5-1.5 1.5-3.3-.6-3.2-3.4-1.9-3.2 3-3 2-.8-.2-4.8-1.8-3.4-2.3-.8-1.3-1.2-.5-2.7.8-3.5v-5l2.2-3.8 3.7-1.8-.5-3.8-4.5-1.5h-2.8l-.8-2.7-2.5-4 1.6-4.3 5.4-5.8-1.7-1.7-4.8.3-1-3.8-3.2-3.2-2-3-4-1h-5.3l-4.5 1.2-3.7-1.2-1-3.3 3-3-3.2-6.8 3.8-3.8 6-2.6 2.5-4.1-4.7-2.1-4.2-2.8-.1-5.1 3.9-3.9 1.4-1.4.3-3.8 2.4-2.4v-4.2l-2.5-3.5 1.7-3.2 2.4-3.1 2.3-2.3-1.2-2.7.7-3.5-.7-4-1.9 1.9-1.9-1.9-3.8-.8-.8-3.5 1.7-1.7-.3-3.8-1.5-3-2-2h-2l-1.8-3.3 1.5-1.2v-3l-1.2-2v-1.7l2.3-2.1-1.4-2.9-3.7-2.2v-2.3l-1.5-1.5 1.4-2.5-.5-3-1.6-1.6.1-2.7 2.3.5.6-2 1.8-1.8 1.1-3.2-1.3-2.5h1.3l.9-2.4-1.6-3.8v-2.6l-2.6-.5.1-3.3-2 1.9-1-1-2 1.8-1.1-1.1-.4-2.2-3.2-.5-2.1-2.1-.5-1.8-1.5-1.5-.2-3.1 3-2.3 2.5-2.5 1.3-2h3.3v-5.8l.3-4-3.6-2-1.1-2.1-.7.9-1-2.2 2.3-2.3 3.2-.5-.3-1.8 1.6-1.6-.6-2.2-2.3-1.3-2.1-.4-1.4-1.4-.7-1.8H472l-.2-2 3.3.7 2.8-.4 2.3 2.3 4.3 2.3-1.2 3.3 1.1 1.1 2.9 2.9h4.5l.7-2.7-1.8-2.5.2-2.3-3.2-1.2-2.3-3.8-1.3-1.3 1-4 1.5-3.3-1.3-1.3-.8-4.2 3.3-3h7.8l4 1.5v-1h6.5l4.3-1.8h3.2l1.7-1.7-1.7-2.5-2-.7-1.7-1.7 1.9-1.9 1.3 1.3 2-.5-1.3-1.5.9-2.1-1.4-1.4 1.7-2.3 2.3-1.8-2.3-.2-.2-2.5 4.7.2 1.8-3.8 4.6-1.8 1.8-1.8 6.3-.9 1.6-1.6 4.5-1.3 1-1.2-3-1 1.7-1.7 4.3-1 3.7-.5.8-1.8 3-.5-1.6 3v2.4l2.1-2.1 5.2.2.5-2.7 3.3-.7 3.3.7-1.5-2-2-1.5-1-1.8h3.7l3.8-1.2h1.2l-.3-2.8-1.3-1v-4l.8-2.7 2.5-6.2 3-2.2 2.7-2.8 3.3 2 2.5-.3.8 3.4-2.6 2.6-2.2 2.8 5.3.3 1-1h3.3l2.4 2.4-2.2 2.2.8 2.2 3.7 1.2.8-2.8-1.5-1.5 3.7-2h3.3l3.4-2.4 1.9 1.9 2.6-1.3 1.9 1.9 1.7 3.3 2 1.7 1.2-1.3 1.8 1.8 2.3 2.3-.3 3.5-3.3-.7 1.3 1.3 3.3 1.8 2.1 3.6-1.9 1.9v3.3l-1.7 2.3-1.6 3.3-1.9 1.9-3.3 4v1.7l-1 4.7-2.5 2.5-1 5.2-4 1-1.3 3.8-2.8 2.8-.7 4.3-.8 3 3-1.3-.7-3.3 3-1.8 4.2-.8 2-3 2.8-2.3 2.7-1 1.6-3.1-1.3-1.3-2-.2.2-1.3-.2-2.7 2.5-.2h2l.4 2.9 1.3 1.1-.3 1.6-1.1 1.2.8 1.9 1.5 2.2 1.4 1.4-.6 3.3 1.2 2.5 3.4 1.3v1.8l4.5 3.3 2.1 2.1v4.1l2.4 4.5h2.6l.3 3.4h-1.4l-.7 2.3-3.2 3.2-2.8 1.9.1 3.4v2.6l-2.5.9-.9 3.3 1.9 1.9v2.8l-1 2.3-3.4-1-2.5.8-3.6 5.1-3.5 1.4-.2 1.3"/></g><path fill="#DDD" stroke="#FFF" d="m486.4 455.4 1.9 3.9 1.4 2.8-3 3 1 3.4 3.6 1.1 4.5-1.1h5.4l4 1 2 3 3.1 3.1 1 3.9 4.9-.4 1.6 1.7-2.8 3.2-2.6 2.5-1.6 4.3 2.5 4 .9 2.7h2.8l4.5 1.5.5 3.8-3.7 1.8-2.1 3.9v5l-3.2 1.3-3.5 3.5-1.8-1.8-3.7 2-3-1.4h-3.5l-5.7 5H486l-3.4 1.8-4.2-.3-4.3 4.6-1.8-1.8 1.5-1.6-1.3-1.3v-3.1l-.6-4.3-2.1-1-2.4 2.4-4 1H460l-2.9-4h-7.2l-3.3-4.6-2.3-2.2-2.8-2.8-4.5-1.9-3.7-2-4.5-.6h-4.2l-2-2-3.6-.9-1-2.9-1.9-3.7.6-4.2-1.9-2v-3.3l1.8-4.4-.5-1.6 4.7-2.8.6-3.5 4.5-3.3 5.5-1.5-.3-5.2 3.9-8.8 5.4-.8 4 1.8h5.7l1.4 2.1 5.4.6 4.1-1.6 3.9 3.9 3.2-.8 4.4 2.2 1.2-4.1 6.6-2.8 6.1 4.6z"/><path fill="#DDD" stroke="#FFF" d="m515.8 519.6-.5-2.6.9-3.5-3.2 1.3-3.5 3.5-1.8-1.8-3.7 2-3-1.4h-3.5l-5.7 5H486l-3.4 1.8.5 5.5 1.2 2.3.8 5-.6 7.2 2.1 3.1 2 3.9h3l2.2 4.1 1.8 1.9.7 3.1 2.6 1.6h2.5l.1 2.3-2.5 1.1 1.4 2.5.4 3.2 1 2.8 3.2 2.9h3.3l2.8 1.5h1.7l.1 3h2.3v-2.8l2.3-2.3 2.9-2.9-1.5-1.5-1.1-2.1.4-1.8 1.2-1.3-1.6-2.1-1.6-1.6 3-4.5v-4.9l1.1-1.1v-2l-3-.5-1.9 1.9-2.3-2.4 3-.8v-3.1l.7-2.6-1.6-3.4-1.2-3.3 2.5-2.2 3-3 2-.8v-4.3l-2-3.9-2.3-.8-1.4-1.2z"/><path fill="#DDD" stroke="#FFF" d="m516.5 533.6 1.9 3.2 3.1 3.5 3.3.6 1.5-1.5 4.9.5 3.2-1.1 1 2-1.1 4.5 3.4 3.4 1 3.9 3.5 3.5v3.2l1 2.7-1 3.5-2.8 2.7.4 3.4-2.7 2.8-3 1.3-1.5 3.7-1.2 1.7-3.6 1.9v3.7l-3.2 3.2-6.1-1-1.5 1.5h-1.7l-1.7 3.3h-2.7l-3.4-3.5 1.6-1.6-.7-3.2 4.5-4.5h2.3v-2.8l5.2-5.2-1.5-1.5-1.1-2.1.4-1.8 1.2-1.3-1.6-2.1-1.6-1.6 2.7-4.2.3-5.2 1.1-1.1v-2l-3-.5-1.9 1.9-2.3-2.4 3-1.2v-2.7l.7-2.6-1.6-3.4-1.2-3.3 2.5-2.2zM46.1 503.9l-1-1.5-1.9-1.9-.9.4v1.6l.8 1.5 3.5 3.6h1.7l.5-.6 1.8 1.1.9 2.3-1.1 1.1-1.8-.1-1 1.9h-1.5v2.8l.6 1.6-.4 1.3h-3.7l-1.3-.6-1.4 1.5 2.5 3.1 1 1.7.7-.7 1.8-.3v-1.3l1.2-1 1.8-1.8 1.8-2.5 1.5-1.5 1.6-.7.6 2.2.9-1.9v-6l-1.1-.8-1-1-1.5-.8-.5-1.8-2.1-.7-.9.5-2.1-.7z"/><g fill="#DDD" stroke="#FFF"><path d="m725.7 154.2-.3-1.2 2.2 1.1 1.2-1.2 1.6-1.6 2.3-2.3 1.4 1.7h.8l1.9-1.9 1.7-2 3.4-1.5 2.4 1.8-1.4 3.8v2.1l-1.6 1.6-2.5 1.1-2.7 1.1h-2.7l-2.1 2-3.2-1.1-1.7-2.4-.7-1.1zm-5.6 3.2h-4.9l-1.6 1.6-2.4 1.7-1.9-1.8-4.4 1.4.4 2.7 1.1 1.1 1.6 1.7 1.2 1.1-1.7 1.4-2.2-2-1.3 1.2-1.6-1.6-3.8.7-1.7-.9-.7 2 1.2 1.2-2.3 1.2v2.9l1.8 1.8-.4 2.1h1.6l2.2 2.1-.6 2.4 2.7 1.4 3.6.1 1.5 1.6h2.7l3.2-.9v-2.5l-1.9-1.8 1-1 1.6 1.5 2.8-5 2.6-2.7 1.2 1.2 2.4-2.4.8-2.3-2.8-.9-1.8 1.8-2.3-1.7-2.7-1.6-2.7-2 .9-2 1.4-1.4 1.2 3.8 1.7 1.8 3 .5 1.8-.7h1.5l1.5-1.6-.7-3.1h-2.5l.6-2.7v-2l-1.9.6zm2.5 26.6-1.3 1.2 1 3 1.8 1.8 1.4-2.8v-2.3l-1-1-1.9.1zm6.2 2.7-1.7 1.8 1 2.3 1.7 1.7-1.1 2.4.9.9 1.4-2.9 3.4-.7 3.1-1.2 4.1-2.5-2.2-3.9h-2.8l-4.1-1.3-1.9 1.7-1.8 1.7zm-34-6.5-1.3-1.3-2.5-.2 1.6 1.6 1 3.6h2v-2l-.8-1.7zm-75.6 58.9-2.8 2.8v1.9h2.3l.8 1.8 2-.9 2.2-2.3v-3.6h-2.8l-1.7.3zm98.6-106.5-.9 1.6 1 1 1.1-1-1.2-1.6zm-8.5 66.1-2.8-.6-1 .7 1.7.8 2.1 1.7.9-1.3-.9-1.3z"/><path d="M843.2 149.8 840 153v2.3l1.6 1.6h-3.3l-3 2.4-4.2 1.8-4.7-4.7-2.3-2.3-4.6.3-5.5.8-3.2 3.8-3.5 3.5-4.2 6.2v4.8l-3.3 4.2-3.2 3.2-3.5.2-3.2-1.7-4.5 2.5.5 3.8-3.2-3.3-2.3 2.7H777l-1.2-1.8 2.5-3-3-2.2-5 2.2-3.5 1.7-1.5 4.2-.7 2.3 1 5.3v3.2l-2.8 2.7.8-6.5-3.2-1-2.5 2.5-2.8 1.3 1.2-4.5 3.2-2.2-.7-1.7-4.8 2.2-6.2 2.3-1.3 3.8-4.7 2.3h-3.2l-2.2 2.2 3.5 2.2.5 2.3-3.7 3.3v3.5l2 1.3 1.7-4.3 1.2 1v3.7l2.8 1.5 2.5 2.5 1.2.7-2.5 2.5-3.2-.2-1.8 2-1.4 1.4 3.9 1.8v2.5l-3.7-1-3.2.2-4.3 1-2.3 4.3.8 4.3h-4.2l-3.7 1-2.3-2.3-4.2-.5v3l2.2 2.2v2.3l1 2.5 1.7 5.5-.3 3.2-3.8-2-1.5 1.5-3.5-.7-2.5-1.7-3.3-3.3-3.4.1V245l-1.5-1.5-1.8 1.7-2.3-2.2 1.3-1.3 2.2-.7v-3.7l-1.7-1.7-3.2 2v-3.2l-1.9-1.9h-1.9l1.3-4.1-4-1.3-1.2 1.2-3.7-2.8-1.6 1.6-1.1 3.1-1.3 1-1.3-1.5-1.3.3-.7 2-2.7-1.8-1.8-1.8-2.1 1.6-2-2-.5 2-.7 3.8 2.5 3.8.5 3.3v3l-4.5.7-3.5 3-3.5 1.3-2-3.2-.5 1.8-.2 1.3H651l-2.8-2.8 1.2-1.2-1.3-1.9-5 1.5-6.3 1.2-4.2 2.2-3.1 3.1-1.6 1.6 2.3 2.2H628l-2-2.8v-3.3l-1.8-1.8-2.1 2.9-.7 2-3.3-1.3-2.8-.7.4 2.9 1.3 1.1-.3 1.6-1.1 1.2.8 1.9 1.5 2.2 1.4 1.4-.6 3.3 1.2 2.5 3.4 1.3v1.8l4.5 3.3 2.1 2.1v4.1l2.4 4.5h2.6l.3 3.4h-1.4l-.7 2.3-3.2 3.2-2.8 1.9.1 6-2.5.9-.9 3.3 1.9 1.9v2.8l-1 2.3-3.4-1-2.5.8-3.6 5.1-3.5 1.4v1.4l.9 2.2 1.3 2.9 2.9 2 .3 5.5 2.9 5.3v2.2l.7 4.2.9 6.5-2.5.7-1.7 2.7-1.6 1.6.9 2.8.9-.9 3.1 1.3v2.7l1.1 1.1-1.1 1v2.9l2.9 1.6.9 4.6 3.4 3.4-1.1 3.2-2 3.1.8 2.5v2.2l-1 1v3.3l1.8.8h2.7l1.4-1.4h1.6l1.5 1.8 3-1.1 2.3 1 1.8-1.8 2.4.2.1 2 2.3 2.3v2.1l-2.2.6v3.2l2.7-.2 2.8-.8 2.5 1.8 2.1 3.7.9 3.6 1.1 1.1-1 1v2.4l2.6 1.2h2.4l1.8 1.8-.4 3.1-1.3 1.3v2.2l1.9 1.9 1 2.3.3 2 2.1.7 2.9 1.2v4.1l-.6 4.2v4.7l-.5 5 .4 8.3 4 4 3.6-.3 1.7-2.5 1-3.1h2.6l5.5-2.1.5-2.7 2.1-.9 2.2 2.2v2.9l1.9 2.6v-3.4l4.4-3v-5.8l3.1-3.1 1.2-3.7-.9-3.2 2.3-2.3 1-3.3 2-2.4 3.5.5 3.5-.4 3.7 1.8 3.2.4v3l1.6 1.4v2.4l3.6.5 2.3-2.3V433h2.7l1.8 1.8 2.2 2.4v2.4l2.1.2 1.4 3.7 2.2 2.2 2.6 2.6-.6 1.8 1.7 1.7.8 3.8 3.6 1.4 2.6 3.4 2.5.8v2.9l2.7.7 2.9-2.9 3.2-2.7h3.2l1.5-1.5 1.8 1.8 2.5.5 1.1-1.1h3.3l1.4 1.8h2.1l.6-2.5 4.2.8 1.5-1.5 3-.6 2.8 1.3 3.5 3.5 2.7-1.2 3-.7 1.4-1.9 2.3 1 1.7-1.7h1.9l1.8 1.8 1.7-1.7 4.9-4.9 3.6.6v-2.3l4.5-1.7 3.2.6 3.3-2.1-.2-3.4 5.4-3.2 5.1-4.2-1.9-4.4V429l-2.2-2.2 1.9-1.9.6-4.3-4.6-2h-3.7l-.4-2.2 2.6-.5-1.4-2.7.7-5.1-3.1-.5-3.1-3.2 2.7-.6.3-4-1.2-1.2-.7-2.1 1-2.6-2.1-2.1 1.8-2.4-1.5-1.5v-3.6l3.4-1.8 2.3-1.3 2.7.3 2.2-2.2 3-1.2.4-2.9-1.9-1.9 1.1-2.8 3.9-.7 5.1-5.1-.2-5.7 3.6-1.2v-1.9l-3.6-3.6-.8-2.6-4-4-2.6-.6-.5-3.2.6-3.9-2-2 3.1-4v-3.5l.2-4.4-1.6-1.6-.8-3.1-1.5-1.5-.1-3.9 2.9-.6 2.5.6 3.2 1.8 3.2-1.7 2.6-.8 2.6-2.6 1.9-3.3 2.5.1 1.5-.9 1.1 1.1 1.4-.5v-2.8l-.2-4.6.5-3.1-2.5-2.5-.6-2-2.2-2.2-3.9-2-1-2.4-2.7-3.6v-2l-1.4-.6.6-3.3 1.1-1.1-1.9-1.9.5-2.9 4.4-1.8v-1.6l3.3.1-.3-3.7-2.5-.7-1.7-2.2 2.1-2h2.1v-2.6l2.1-1.5v-1.9l2.6-.6 1.6 1.9 2.2-.3 1.1-2.4-.7-2.1 2.3-3.6.7-2.4 2.3-.4v-2.1l-1.1-3-2.7-1.6-2.6-2.6v-3l-.2-3.3-2.5-1.3-1.8-2.4v-2.8l2-.4-.9-2.7-2.8-.8.5-2.5 2.9-1.1v-2.9l1.4-1.4h3.2l.3-3.4h4.2l1.7-1.7-1-3.4 1.5-2.8-2-3.2H869l-1.8-3.5-2-2h-2.7l-3.4 1.1-3.1-1.4-3.3-.5v-3.9l-2.6-1.5-1.1-3.3 2-3.1v-3.4l2.3-1.6v-3.3l1.6-4 3.4-2.6-2.6-4.4-3-1.1-.8-2.1-3.3-.4-4-1.4-1.4-1.8z"/></g><path fill="#DDD" stroke="#FFF" d="M139 276.8h15.3v4.9l1.8 6.2 6.3 18.2 3.9 1.8 2.4 4.4 1.8 7-2.4 5.1-2.2 2.7-2.1.3-1 1.8-3.2-.5-1.8 1.8-1.3-5-1.3-1.3-1.9-.7 1-2v-2l-2.1-1-.3-2-2.4-.1-1.4 1.4-1.8-2.3.5-4.3-1.5-.3-1.7-1.7-1.6 1.3-1.7.5-2.5-1.1-2.7-.3h-3.8l-1.2-2.3-1.4.7-1.2 1.2-2.2-.2-.7-3.3.9-3-1.1-2.4-.1-2.4-2.2-2.2 1.1-2.2-2-2.4 3.3-2 4.5 1 .7-2.5 1.5-1.5 2.8 1.4 2.3 2.5 3.7 1.1 1.3 3-.5.6v.9l-.8 3 1.2-.2 1.5 1.1.6-.5h.7l1.5-.7V297l.8-1v-1.2l-.5-.6-1.1 1.3-.4-4.9-3-2.6v-5.7l2.7-.7.8-.8-3.6-1.5-2.2-2.5z"/><path fill="#DDD" stroke="#FFF" d="M154.3 276.8v4.9l1.8 6.2 6.3 18.2 3.9 1.8 2.4 4.4 1.8 7 3.8-2.1 2.5-3.6 1.8 1 3.1-1.6 2.7-1 2.8.5 2.4 1.1 2.7-.6 2.2 1.4.2 1.5 2.3 2.6 1.3-1.5 1.2-.3 3.3-3.2.5-2.7-.3-2.3 2.8-.8 1.2-3.4-3.2-3.2.5-4.1.8-1.9 2.1-1.1 1-2.3-.2-2.6 1-1.1 1.3 1.6.7-.7 1.8 1.1 2.1-3 2.4-4.2-2.5-7.8 3.1-3.1 1.3-5.9 3.2-3.3 4.1-1.2 2.3-5.2.7-3.7-2.4-2.4 1.8-1.8-.1-4.3-2 .2-1.8-1.1-2.8.7-1.8-1.8.9-2.4.4-3-8-7.2-6.2 11.5-2.8-1.4-5.9 4.7-2.6.2v5.6l-3 1.2v4.3l-4 3.2h-4.7l-1.2 11v4.3l-7 2.5-22 .2z"/></svg>